<svg xmlns="http://www.w3.org/2000/svg" xmlns:xlink="http://www.w3.org/1999/xlink" contentStyleType="text/css" data-diagram-type="DESCRIPTION" height="1268px" preserveAspectRatio="none" style="width:435px;height:1268px;background:#FFFFFF;" version="1.1" viewBox="0 0 435 1268" width="435px" zoomAndPan="magnify"><?plantuml 1.2026.6?><defs/><g><g class="title" data-source-line="1"><text fill="#000000" font-family="sans-serif" font-size="14" font-weight="700" lengthAdjust="spacing" textLength="226.167" x="101.2815" y="23.5352">Casos de uso - Sistema de cine</text></g><!--cluster Sistema--><g class="cluster" data-qualified-name="Sistema" data-source-line="8" id="ent0003"><rect fill="none" height="1048" rx="2.5" ry="2.5" style="stroke:#181818;stroke-width:1;" width="274.43" x="147.3" y="206.4583"/><text fill="#000000" font-family="sans-serif" font-size="14" font-weight="700" lengthAdjust="spacing" textLength="56.1504" x="256.4398" y="221.9934">Sistema</text></g><!--entity CU01--><g class="entity" data-qualified-name="Sistema.CU01" data-source-line="9" id="ent0004"><ellipse cx="284.522" cy="1140.4607" fill="#F1F1F1" rx="101.362" ry="22.6724" style="stroke:#181818;stroke-width:0.5;"/><text fill="#000000" font-family="sans-serif" font-size="14" lengthAdjust="spacing" textLength="178.6162" x="195.2139" y="1145.2048">CU-01 Gestionar peliculas</text></g><!--entity CU01b--><g class="entity" data-qualified-name="Sistema.CU01b" data-source-line="10" id="ent0005"><ellipse cx="284.5229" cy="422.4569" fill="#F1F1F1" rx="100.9929" ry="22.5986" style="stroke:#181818;stroke-width:0.5;"/><text fill="#000000" font-family="sans-serif" font-size="14" lengthAdjust="spacing" textLength="177.8027" x="195.6215" y="427.201">CU-01b Filtrar por genero</text></g><!--entity CU02--><g class="entity" data-qualified-name="Sistema.CU02" data-source-line="11" id="ent0006"><ellipse cx="284.5195" cy="982.4622" fill="#F1F1F1" rx="121.2195" ry="26.6439" style="stroke:#181818;stroke-width:0.5;"/><text fill="#000000" font-family="sans-serif" font-size="14" lengthAdjust="spacing" textLength="221.6006" x="173.7192" y="987.2063">CU-02 Gestionar salas y butacas</text></g><!--entity CU03--><g class="entity" data-qualified-name="Sistema.CU03" data-source-line="12" id="ent0007"><ellipse cx="284.5162" cy="898.4615" fill="#F1F1F1" rx="100.1162" ry="22.4232" style="stroke:#181818;stroke-width:0.5;"/><text fill="#000000" font-family="sans-serif" font-size="14" lengthAdjust="spacing" textLength="175.8682" x="196.5821" y="903.2057">CU-03 Programar funcion</text></g><!--entity CU04--><g class="entity" data-qualified-name="Sistema.CU04" data-source-line="13" id="ent0008"><ellipse cx="284.5203" cy="657.4563" fill="#F1F1F1" rx="101.3403" ry="22.6681" style="stroke:#181818;stroke-width:0.5;"/><text fill="#000000" font-family="sans-serif" font-size="14" lengthAdjust="spacing" textLength="178.5684" x="195.2361" y="662.2005">CU-04 Consultar cartelera</text></g><!--entity CU05--><g class="entity" data-qualified-name="Sistema.CU05" data-source-line="14" id="ent0009"><ellipse cx="284.5184" cy="346.458" fill="#F1F1F1" rx="78.0984" ry="18.0197" style="stroke:#181818;stroke-width:0.5;"/><text fill="#000000" font-family="sans-serif" font-size="14" lengthAdjust="spacing" textLength="125.5488" x="221.744" y="351.2021">CU-05 Registrarse</text></g><!--entity CU06--><g class="entity" data-qualified-name="Sistema.CU06" data-source-line="15" id="ent0010"><ellipse cx="284.5188" cy="267.458" fill="#F1F1F1" rx="118.3988" ry="26.0798" style="stroke:#181818;stroke-width:0.5;"/><text fill="#000000" font-family="sans-serif" font-size="14" lengthAdjust="spacing" textLength="215.5713" x="176.7332" y="272.2022">CU-06 Elegir butacas y reservar</text></g><!--entity CU07--><g class="entity" data-qualified-name="Sistema.CU07" data-source-line="16" id="ent0011"><ellipse cx="284.5161" cy="1218.4615" fill="#F1F1F1" rx="88.3661" ry="20.0732" style="stroke:#181818;stroke-width:0.5;"/><text fill="#000000" font-family="sans-serif" font-size="14" lengthAdjust="spacing" textLength="149.5088" x="209.7617" y="1223.2056">CU-07 Cobrar reserva</text></g><!--entity CU08--><g class="entity" data-qualified-name="Sistema.CU08" data-source-line="17" id="ent0012"><ellipse cx="284.5192" cy="578.4581" fill="#F1F1F1" rx="93.7992" ry="21.1598" style="stroke:#181818;stroke-width:0.5;"/><text fill="#000000" font-family="sans-serif" font-size="14" lengthAdjust="spacing" textLength="161.8066" x="203.6159" y="583.2023">CU-08 Cancelar reserva</text></g><!--entity CU09--><g class="entity" data-qualified-name="Sistema.CU09" data-source-line="18" id="ent0013"><ellipse cx="284.5227" cy="501.4608" fill="#F1F1F1" rx="93.7627" ry="21.1525" style="stroke:#181818;stroke-width:0.5;"/><text fill="#000000" font-family="sans-serif" font-size="14" lengthAdjust="spacing" textLength="161.7246" x="203.6603" y="506.205">CU-09 Ver mis reservas</text></g><!--entity CU10--><g class="entity" data-qualified-name="Sistema.CU10" data-source-line="19" id="ent0014"><ellipse cx="284.5244" cy="1063.4612" fill="#F1F1F1" rx="83.7644" ry="19.1529" style="stroke:#181818;stroke-width:0.5;"/><text fill="#000000" font-family="sans-serif" font-size="14" lengthAdjust="spacing" textLength="138.9063" x="215.0712" y="1068.2053">CU-10 Iniciar sesion</text></g><!--entity CU11--><g class="entity" data-qualified-name="Sistema.CU11" data-source-line="20" id="ent0015"><ellipse cx="284.5191" cy="815.4588" fill="#F1F1F1" rx="100.8691" ry="25.1705" style="stroke:#181818;stroke-width:0.5;"/><text fill="#000000" font-family="sans-serif" font-size="14" lengthAdjust="spacing" textLength="145.5713" x="211.7335" y="813.6259">CU-11 Marcar butaca</text><text fill="#000000" font-family="sans-serif" font-size="14" lengthAdjust="spacing" textLength="112.3418" x="228.3482" y="830.1142">fuera de servicio</text></g><!--entity CU12--><g class="entity" data-qualified-name="Sistema.CU12" data-source-line="21" id="ent0016"><ellipse cx="284.5207" cy="735.4584" fill="#F1F1F1" rx="88.1507" ry="20.0301" style="stroke:#181818;stroke-width:0.5;"/><text fill="#000000" font-family="sans-serif" font-size="14" lengthAdjust="spacing" textLength="149.0166" x="210.0123" y="740.2026">CU-12 Arqueo del dia</text></g><!--entity cliente--><g class="entity" data-qualified-name="cliente" data-source-line="5" id="ent0001"><ellipse cx="54.6523" cy="432.7183" fill="#F1F1F1" rx="8" ry="8" style="stroke:#181818;stroke-width:0.5;"/><path d="M54.6523,440.7183 L54.6523,467.7183 M41.6523,448.7183 L67.6523,448.7183 M54.6523,467.7183 L41.6523,482.7183 M54.6523,467.7183 L67.6523,482.7183" fill="none" style="stroke:#181818;stroke-width:0.5;"/><text fill="#000000" font-family="sans-serif" font-size="14" lengthAdjust="spacing" textLength="47.3047" x="31" y="497.7534">Cliente</text></g><!--entity admin--><g class="entity" data-qualified-name="admin" data-source-line="6" id="ent0002"><ellipse cx="54.6479" cy="902.4683" fill="#F1F1F1" rx="8" ry="8" style="stroke:#181818;stroke-width:0.5;"/><path d="M54.6479,910.4683 L54.6479,937.4683 M41.6479,918.4683 L67.6479,918.4683 M54.6479,937.4683 L41.6479,952.4683 M54.6479,937.4683 L67.6479,952.4683" fill="none" style="stroke:#181818;stroke-width:0.5;"/><text fill="#000000" font-family="sans-serif" font-size="14" lengthAdjust="spacing" textLength="97.2959" x="6" y="967.5034">Administrador</text><text fill="#000000" font-family="sans-serif" font-size="14" lengthAdjust="spacing" textLength="52.7939" x="6" y="983.9917">del cine</text></g><g class="entity" data-qualified-name="GMN31" data-source-line="41" id="ent0032"><path d="M163.85,134.4883 L163.85,190.4199 L405.1898,190.4199 L405.1898,144.4883 L395.1898,134.4883 L163.85,134.4883" fill="#FEFFDD" style="stroke:#181818;stroke-width:0.5;"/><path d="M395.1898,134.4883 L395.1898,144.4883 L405.1898,144.4883 L395.1898,134.4883" fill="#FEFFDD" style="stroke:#181818;stroke-width:1;"/><text fill="#000000" font-family="sans-serif" font-size="13" lengthAdjust="spacing" textLength="220.3398" x="169.85" y="152.0566">Solo el administrador inicia sesion.</text><text fill="#000000" font-family="sans-serif" font-size="13" lengthAdjust="spacing" textLength="202.3633" x="169.85" y="167.3672">El cliente compra sin registrarse</text><text fill="#000000" font-family="sans-serif" font-size="13" lengthAdjust="spacing" textLength="100.1279" x="169.85" y="182.6777">con contrasena.</text></g><g class="entity" data-qualified-name="GMN34" data-source-line="47" id="ent0035"><path d="M174.9,43.4883 L174.9,99.4199 L394.1373,99.4199 L394.1373,53.4883 L384.1373,43.4883 L174.9,43.4883" fill="#FEFFDD" style="stroke:#181818;stroke-width:0.5;"/><path d="M384.1373,43.4883 L384.1373,53.4883 L394.1373,53.4883 L384.1373,43.4883" fill="#FEFFDD" style="stroke:#181818;stroke-width:1;"/><text fill="#000000" font-family="sans-serif" font-size="13" lengthAdjust="spacing" textLength="198.2373" x="180.9" y="61.0566">El cobro lo registra la boleteria.</text><text fill="#000000" font-family="sans-serif" font-size="13" lengthAdjust="spacing" textLength="193.5146" x="180.9" y="76.3672">El monto sale de la reserva, no</text><text fill="#000000" font-family="sans-serif" font-size="13" lengthAdjust="spacing" textLength="119.1709" x="180.9" y="91.6777">se ingresa a mano.</text></g><!--link cliente to CU04--><g class="link" data-entity-1="ent0001" data-entity-2="ent0008" data-link-type="dependency" data-source-line="24" id="lnk17"><path d="M66.78,500.9783 C78.95,536.3383 101.88,587.6183 139.3,617.4583 C155.95,630.7383 171.936,638.232 192.486,644.162" fill="none" id="cliente-to-CU04" style="stroke:#181818;stroke-width:1;"/><polygon fill="#181818" points="197.29,645.5483,189.7518,639.2098,192.486,644.162,187.5338,646.8962,197.29,645.5483" style="stroke:#181818;stroke-width:1;stroke-linejoin:miter;stroke-miterlimit:10;"/></g><!--link cliente to CU01b--><g class="link" data-entity-1="ent0001" data-entity-2="ent0005" data-link-type="dependency" data-source-line="25" id="lnk18"><path d="M78.75,458.3983 C107.94,453.2783 154.7852,445.0522 198.9652,437.3022" fill="none" id="cliente-to-CU01b" style="stroke:#181818;stroke-width:1;"/><polygon fill="#181818" points="203.89,436.4383,194.3342,434.0535,198.9652,437.3022,195.7165,441.9331,203.89,436.4383" style="stroke:#181818;stroke-width:1;stroke-linejoin:miter;stroke-miterlimit:10;"/></g><!--link cliente to CU05--><g class="link" data-entity-1="ent0001" data-entity-2="ent0009" data-link-type="dependency" data-source-line="26" id="lnk19"><path d="M78.47,434.1283 C93.9,416.7683 115.72,395.4583 139.3,382.4583 C162.91,369.4383 186.389,362.0864 211.689,356.7164" fill="none" id="cliente-to-CU05" style="stroke:#181818;stroke-width:1;"/><polygon fill="#181818" points="216.58,355.6783,206.9456,353.6341,211.689,356.7164,208.6066,361.4598,216.58,355.6783" style="stroke:#181818;stroke-width:1;stroke-linejoin:miter;stroke-miterlimit:10;"/></g><!--link cliente to CU06--><g class="link" data-entity-1="ent0001" data-entity-2="ent0010" data-link-type="dependency" data-source-line="27" id="lnk20"><path d="M67.47,423.8383 C79.96,389.3083 102.96,339.7683 139.3,310.4583 C154.14,298.4883 167.5168,291.4496 185.8168,285.2196" fill="none" id="cliente-to-CU06" style="stroke:#181818;stroke-width:1;"/><polygon fill="#181818" points="190.55,283.6083,180.7411,282.7222,185.8168,285.2196,183.3193,290.2953,190.55,283.6083" style="stroke:#181818;stroke-width:1;stroke-linejoin:miter;stroke-miterlimit:10;"/></g><!--link cliente to CU08--><g class="link" data-entity-1="ent0001" data-entity-2="ent0012" data-link-type="dependency" data-source-line="28" id="lnk21"><path d="M78.66,489.9583 C94.17,506.8383 116,527.6083 139.3,540.4583 C160.27,552.0283 180.0582,558.9901 202.9882,564.7001" fill="none" id="cliente-to-CU08" style="stroke:#181818;stroke-width:1;"/><polygon fill="#181818" points="207.84,565.9083,200.0733,559.8521,202.9882,564.7001,198.1401,567.615,207.84,565.9083" style="stroke:#181818;stroke-width:1;stroke-linejoin:miter;stroke-miterlimit:10;"/></g><!--link cliente to CU09--><g class="link" data-entity-1="ent0001" data-entity-2="ent0013" data-link-type="dependency" data-source-line="29" id="lnk22"><path d="M78.75,466.4083 C109.02,471.5883 158.6216,480.0851 203.8016,487.8151" fill="none" id="cliente-to-CU09" style="stroke:#181818;stroke-width:1;"/><polygon fill="#181818" points="208.73,488.6583,200.5335,483.1978,203.8016,487.8151,199.1843,491.0832,208.73,488.6583" style="stroke:#181818;stroke-width:1;stroke-linejoin:miter;stroke-miterlimit:10;"/></g><!--link admin to CU10--><g class="link" data-entity-1="ent0002" data-entity-2="ent0014" data-link-type="dependency" data-source-line="31" id="lnk23"><path d="M92.14,987.0483 C105.57,1001.5283 121.82,1016.3283 139.3,1026.4583 C161.55,1039.3583 183.4134,1046.7142 207.7934,1052.2342" fill="none" id="admin-to-CU10" style="stroke:#181818;stroke-width:1;"/><polygon fill="#181818" points="212.67,1053.3383,204.7755,1047.4496,207.7934,1052.2342,203.0089,1055.2521,212.67,1053.3383" style="stroke:#181818;stroke-width:1;stroke-linejoin:miter;stroke-miterlimit:10;"/></g><!--link admin to CU01--><g class="link" data-entity-1="ent0002" data-entity-2="ent0004" data-link-type="dependency" data-source-line="32" id="lnk24"><path d="M68.87,987.3883 C81.35,1023.3683 103.58,1071.5883 139.3,1100.4583 C155.87,1113.8483 171.8166,1121.3799 192.3666,1127.3199" fill="none" id="admin-to-CU01" style="stroke:#181818;stroke-width:1;"/><polygon fill="#181818" points="197.17,1128.7083,189.6347,1122.3664,192.3666,1127.3199,187.4132,1130.0518,197.17,1128.7083" style="stroke:#181818;stroke-width:1;stroke-linejoin:miter;stroke-miterlimit:10;"/></g><!--link admin to CU02--><g class="link" data-entity-1="ent0002" data-entity-2="ent0006" data-link-type="dependency" data-source-line="33" id="lnk25"><path d="M103.69,949.3183 C128.9,953.9583 155.7329,958.9018 185.5129,964.3918" fill="none" id="admin-to-CU02" style="stroke:#181818;stroke-width:1;"/><polygon fill="#181818" points="190.43,965.2983,182.3043,959.7329,185.5129,964.3918,180.854,967.6003,190.43,965.2983" style="stroke:#181818;stroke-width:1;stroke-linejoin:miter;stroke-miterlimit:10;"/></g><!--link admin to CU03--><g class="link" data-entity-1="ent0002" data-entity-2="ent0007" data-link-type="dependency" data-source-line="34" id="lnk26"><path d="M103.69,931.5983 C133.33,926.1383 167.1229,919.9148 201.0229,913.6648" fill="none" id="admin-to-CU03" style="stroke:#181818;stroke-width:1;"/><polygon fill="#181818" points="205.94,912.7583,196.3639,910.4564,201.0229,913.6648,197.8144,918.3238,205.94,912.7583" style="stroke:#181818;stroke-width:1;stroke-linejoin:miter;stroke-miterlimit:10;"/></g><!--link admin to CU04--><g class="link" data-entity-1="ent0002" data-entity-2="ent0008" data-link-type="dependency" data-source-line="35" id="lnk27"><path d="M58.98,893.7283 C65.4,839.0083 84.22,749.2783 139.3,697.4583 C154.44,683.2183 169.4094,675.4 189.4194,669.42" fill="none" id="admin-to-CU04" style="stroke:#181818;stroke-width:1;"/><polygon fill="#181818" points="194.21,667.9883,184.4415,666.7328,189.4194,669.42,186.7322,674.3978,194.21,667.9883" style="stroke:#181818;stroke-width:1;stroke-linejoin:miter;stroke-miterlimit:10;"/></g><!--link admin to CU11--><g class="link" data-entity-1="ent0002" data-entity-2="ent0015" data-link-type="dependency" data-source-line="36" id="lnk28"><path d="M95.23,893.8883 C108.18,880.9283 123.35,867.8583 139.3,858.4583 C159.44,846.5883 178.3276,839.1501 200.6176,832.6901" fill="none" id="admin-to-CU11" style="stroke:#181818;stroke-width:1;"/><polygon fill="#181818" points="205.42,831.2983,195.6623,829.9616,200.6176,832.6901,197.8892,837.6454,205.42,831.2983" style="stroke:#181818;stroke-width:1;stroke-linejoin:miter;stroke-miterlimit:10;"/></g><!--link admin to CU07--><g class="link" data-entity-1="ent0002" data-entity-2="ent0011" data-link-type="dependency" data-source-line="37" id="lnk29"><path d="M59.1,987.2283 C65.64,1041.4483 84.56,1129.8183 139.3,1180.4583 C156.4,1196.2883 174.4544,1204.4854 196.9644,1210.0154" fill="none" id="admin-to-CU07" style="stroke:#181818;stroke-width:1;"/><polygon fill="#181818" points="201.82,1211.2083,194.0342,1205.1766,196.9644,1210.0154,192.1256,1212.9456,201.82,1211.2083" style="stroke:#181818;stroke-width:1;stroke-linejoin:miter;stroke-miterlimit:10;"/></g><!--link admin to CU12--><g class="link" data-entity-1="ent0002" data-entity-2="ent0016" data-link-type="dependency" data-source-line="38" id="lnk30"><path d="M67.25,893.7083 C79.11,855.5883 101.29,803.1883 139.3,772.4583 C157.39,757.8283 175.7193,750.0902 198.1993,744.6702" fill="none" id="admin-to-CU12" style="stroke:#181818;stroke-width:1;"/><polygon fill="#181818" points="203.06,743.4983,193.3732,741.7192,198.1993,744.6702,195.2483,749.4963,203.06,743.4983" style="stroke:#181818;stroke-width:1;stroke-linejoin:miter;stroke-miterlimit:10;"/></g><!--link CU10 to GMN31--><g class="link" data-entity-1="ent0014" data-entity-2="ent0032" data-link-type="association" data-source-line="41" id="lnk33"><path d="M201.36,1060.6283 C168.07,1054.4483 134.49,1040.1883 121.3,1008.9583 C104.73,969.7583 104.73,282.1583 121.3,242.9583 C131.26,219.3883 151.25,202.6683 173.94,190.8283" fill="none" id="CU10-GMN31" style="stroke:#181818;stroke-width:1;stroke-dasharray:7,7;"/></g><!--link CU07 to GMN34--><g class="link" data-entity-1="ent0011" data-entity-2="ent0035" data-link-type="association" data-source-line="47" id="lnk36"><path d="M197.87,1214.3983 C165.76,1207.6683 134.05,1193.1483 121.3,1162.9583 C99.07,1110.3483 99.07,187.5683 121.3,134.9583 C131.06,111.8483 151.48,97.0383 174.68,87.5883" fill="none" id="CU07-GMN34" style="stroke:#181818;stroke-width:1;stroke-dasharray:7,7;"/></g><?plantuml-src RPDDRzim38Rl-XL4paiHEz-N0KNG3JiC65PqfruOcV44o697oGE6OVzzL6grYTf3W8Xw-98cNoMNFC418qVe2CR8C8Tx5nCDc0FM1JB6qob1OX3N_qpGEI6R70TZq2OME7X78H5W1FlyTxgOtNQ32wecsB4yXexyMN6MKSntncGj3BrsKSh-DQ2DaCL8C3iyp1SDVAQO2wB04tbdHu_nh75uM3Hlw2DySbvBAgmzz1H8-8K-rdXx8HvHXU4F7CU4zhL4M-SiuPjmBpXepcaCLhCBkwpP5HmunD4dPIrA8a-2XLxLz1g-KtyUc4GgrBgcDd3d5PFIgBOi54b-evISJPsprJwEUIWJMS1j3UxK3i6IVulkQdGFFqXWSB6GBoFRLsYpW2_1MPU7JF5rNisY1XluYgA3chxjCPn67LZsOgwW4cMNJRtvfeLR-JKIG_PPvqhVJMl-6JCv4-RpZy-JhmBgZ2gohWEREh2h0tjz4jdMqrc_xlAeNhqwjjV7vVLnTIrLvMwlRrjZ0ciVHqw91-1JcUqzUmOT1rw-H73dNKohk57ipfUd2vQ79nruL75vzQ8obaF-wJbIm1j3eODSz9tIPrTbJRKSWtPGbC2ZWfuIYSEfyA2QdDyUvIqhC9dfWweheTjreTSO0iA0WIyg_mS0?></g></svg>