<svg xmlns="http://www.w3.org/2000/svg" xmlns:xlink="http://www.w3.org/1999/xlink" version="1.1" data-diagram-type="SEQUENCE" style="width:1219px;height:920px;background:#FFFFFF;" width="1219px" height="920px" viewBox="0 0 1219 920" zoomAndPan="magnify" preserveAspectRatio="none" contentStyleType="text/css"><?plantuml 1.2026.8?><defs/><g font-family="sans-serif" lengthAdjust="spacing"><g class="title" data-source-line="1"><text x="389.7" y="28.535" fill="#000" font-size="14" textLength="428.196" font-weight="700">Importador de cartelera: TMDB entra por las reglas del cine</text></g><rect x="8" y="45.488" width="1188.597" height="16.641" fill="#FFC" style="stroke:#FD8;stroke-width:3;" rx="2.5" ry="2.5"/><text x="15" y="56.129" fill="#000" font-size="10" textLength="361.23" font-family="monospace">Please use CSS style instead of skinparam ParticipantPadding</text><rect x="406.016" y="467.654" width="776.777" height="185.863" fill="none" style="stroke:#000;stroke-width:1.5;"/><g><title>Encargado</title><rect x="44.89" y="145.617" width="8" height="687.074" fill="#000" fill-opacity="0"/><line x1="48.39" y1="145.617" x2="48.39" y2="832.691" style="stroke:#181818;stroke-width:0.5;stroke-dasharray:5,5;"/></g><g><title>nginx</title><rect x="228.025" y="145.617" width="8" height="687.074" fill="#000" fill-opacity="0"/><line x1="231.525" y1="145.617" x2="231.525" y2="832.691" style="stroke:#181818;stroke-width:0.5;stroke-dasharray:5,5;"/></g><g><title>GestorImportaciones</title><rect x="418.516" y="145.617" width="8" height="687.074" fill="#000" fill-opacity="0"/><line x1="422.016" y1="145.617" x2="422.016" y2="832.691" style="stroke:#181818;stroke-width:0.5;stroke-dasharray:5,5;"/></g><g><title></title><rect x="417.016" y="234.859" width="10" height="453.969" fill="#FFF" style="stroke:#181818;stroke-width:1;"/></g><g><title>TmdbHttp</title><rect x="605.054" y="145.617" width="8" height="687.074" fill="#000" fill-opacity="0"/><line x1="608.554" y1="145.617" x2="608.554" y2="832.691" style="stroke:#181818;stroke-width:0.5;stroke-dasharray:5,5;"/></g><g><title></title><rect x="603.554" y="264.17" width="10" height="191.484" fill="#FFF" style="stroke:#181818;stroke-width:1;"/></g><g><title>MapeoTmdb</title><rect x="809.497" y="145.617" width="8" height="687.074" fill="#000" fill-opacity="0"/><line x1="812.997" y1="145.617" x2="812.997" y2="832.691" style="stroke:#181818;stroke-width:0.5;stroke-dasharray:5,5;"/></g><g><title>GestorRevisionCartelera</title><rect x="957.033" y="145.617" width="8" height="687.074" fill="#000" fill-opacity="0"/><line x1="960.533" y1="145.617" x2="960.533" y2="832.691" style="stroke:#181818;stroke-width:0.5;stroke-dasharray:5,5;"/></g><g><title>MySQL</title><rect x="1163.293" y="145.617" width="8" height="687.074" fill="#000" fill-opacity="0"/><line x1="1166.793" y1="145.617" x2="1166.793" y2="832.691" style="stroke:#181818;stroke-width:0.5;stroke-dasharray:5,5;"/></g><text x="10" y="142.664" fill="#000" font-size="14" textLength="70.779">Encargado</text><ellipse cx="48.39" cy="77.629" rx="8" ry="8" fill="#E2E2F0" style="stroke:#181818;stroke-width:0.5;"/><path d="M48.39,85.629 L48.39,112.629 M35.39,93.629 L61.39,93.629 M48.39,112.629 L35.39,127.629 M48.39,112.629 L61.39,127.629" style="stroke:#181818;stroke-width:0.5;" fill="none"/><rect x="205.156" y="114.129" width="52.739" height="30.488" fill="#E2E2F0" style="stroke:#181818;stroke-width:0.5;" rx="2.5" ry="2.5"/><text x="212.156" y="134.664" fill="#000" font-size="14" textLength="38.739">nginx</text><rect x="344.38" y="97.641" width="155.271" height="46.977" fill="#E2E2F0" style="stroke:#181818;stroke-width:0.5;" rx="2.5" ry="2.5"/><text x="351.38" y="118.176" fill="#000" font-size="14" textLength="141.271">GestorImportaciones</text><text x="361.723" y="134.664" fill="#000" font-size="14" textLength="120.586">service/cartelera/</text><rect x="509.652" y="97.641" width="197.805" height="46.977" fill="#E2E2F0" style="stroke:#181818;stroke-width:0.5;" rx="2.5" ry="2.5"/><text x="573.995" y="118.176" fill="#000" font-size="14" textLength="69.118">TmdbHttp</text><text x="516.652" y="134.664" fill="#000" font-size="14" textLength="183.805">infrastructure/importador/</text><rect x="763.724" y="114.129" width="98.547" height="30.488" fill="#E2E2F0" style="stroke:#181818;stroke-width:0.5;" rx="2.5" ry="2.5"/><text x="770.724" y="134.664" fill="#000" font-size="14" textLength="84.547">MapeoTmdb</text><rect x="872.271" y="114.129" width="176.524" height="30.488" fill="#E2E2F0" style="stroke:#181818;stroke-width:0.5;" rx="2.5" ry="2.5"/><text x="879.271" y="134.664" fill="#000" font-size="14" textLength="162.524">GestorRevisionCartelera</text><text x="1141.166" y="142.664" fill="#000" font-size="14" textLength="45.254">MySQL</text><path d="M1148.793,93.129 C1148.793,83.129 1166.793,83.129 1166.793,83.129 C1166.793,83.129 1184.793,83.129 1184.793,93.129 L1184.793,119.129 C1184.793,129.129 1166.793,129.129 1166.793,129.129 C1166.793,129.129 1148.793,129.129 1148.793,119.129 L1148.793,93.129" style="stroke:#181818;stroke-width:0.5;" fill="#E2E2F0"/><path d="M1148.793,93.129 C1148.793,103.129 1166.793,103.129 1166.793,103.129 C1166.793,103.129 1184.793,103.129 1184.793,93.129" style="stroke:#181818;stroke-width:0.5;" fill="none"/><text x="10" y="846.227" fill="#000" font-size="14" textLength="70.779">Encargado</text><ellipse cx="48.39" cy="857.68" rx="8" ry="8" fill="#E2E2F0" style="stroke:#181818;stroke-width:0.5;"/><path d="M48.39,865.68 L48.39,892.68 M35.39,873.68 L61.39,873.68 M48.39,892.68 L35.39,907.68 M48.39,892.68 L61.39,907.68" style="stroke:#181818;stroke-width:0.5;" fill="none"/><rect x="205.156" y="832.691" width="52.739" height="30.488" fill="#E2E2F0" style="stroke:#181818;stroke-width:0.5;" rx="2.5" ry="2.5"/><text x="212.156" y="853.227" fill="#000" font-size="14" textLength="38.739">nginx</text><rect x="344.38" y="832.691" width="155.271" height="46.977" fill="#E2E2F0" style="stroke:#181818;stroke-width:0.5;" rx="2.5" ry="2.5"/><text x="351.38" y="853.227" fill="#000" font-size="14" textLength="141.271">GestorImportaciones</text><text x="361.723" y="869.715" fill="#000" font-size="14" textLength="120.586">service/cartelera/</text><rect x="509.652" y="832.691" width="197.805" height="46.977" fill="#E2E2F0" style="stroke:#181818;stroke-width:0.5;" rx="2.5" ry="2.5"/><text x="573.995" y="853.227" fill="#000" font-size="14" textLength="69.118">TmdbHttp</text><text x="516.652" y="869.715" fill="#000" font-size="14" textLength="183.805">infrastructure/importador/</text><rect x="763.724" y="832.691" width="98.547" height="30.488" fill="#E2E2F0" style="stroke:#181818;stroke-width:0.5;" rx="2.5" ry="2.5"/><text x="770.724" y="853.227" fill="#000" font-size="14" textLength="84.547">MapeoTmdb</text><rect x="872.271" y="832.691" width="176.524" height="30.488" fill="#E2E2F0" style="stroke:#181818;stroke-width:0.5;" rx="2.5" ry="2.5"/><text x="879.271" y="853.227" fill="#000" font-size="14" textLength="162.524">GestorRevisionCartelera</text><text x="1141.166" y="846.227" fill="#000" font-size="14" textLength="45.254">MySQL</text><path d="M1148.793,859.18 C1148.793,849.18 1166.793,849.18 1166.793,849.18 C1166.793,849.18 1184.793,849.18 1184.793,859.18 L1184.793,885.18 C1184.793,895.18 1166.793,895.18 1166.793,895.18 C1166.793,895.18 1148.793,895.18 1148.793,885.18 L1148.793,859.18" style="stroke:#181818;stroke-width:0.5;" fill="#E2E2F0"/><path d="M1148.793,859.18 C1148.793,869.18 1166.793,869.18 1166.793,869.18 C1166.793,869.18 1184.793,869.18 1184.793,859.18" style="stroke:#181818;stroke-width:0.5;" fill="none"/><polygon points="219.525,201.549,229.525,205.549,219.525,209.549,223.525,205.549" fill="#181818" style="stroke:#181818;stroke-width:1;stroke-linejoin:miter;stroke-miterlimit:10;"/><line x1="48.39" y1="205.549" x2="225.525" y2="205.549" style="stroke:#181818;stroke-width:1;"/><text x="55.39" y="170.186" fill="#000" font-size="13" textLength="32.506">POST</text><text x="87.896" y="170.186" fill="#000" font-size="13"> </text><text x="92.009" y="170.186" fill="#000" font-size="13" textLength="122.516">/api/importaciones</text><text x="55.39" y="185.496" fill="#000" font-size="13" textLength="41.311">(boton</text><text x="96.7" y="185.496" fill="#000" font-size="13"> </text><text x="100.813" y="185.496" fill="#000" font-size="13" textLength="33.281">Traer</text><text x="134.094" y="185.496" fill="#000" font-size="13"> </text><text x="138.208" y="185.496" fill="#000" font-size="13" textLength="54.761">cartelera</text><text x="55.39" y="200.807" fill="#000" font-size="13" textLength="19.183">del</text><text x="74.572" y="200.807" fill="#000" font-size="13"> </text><text x="78.686" y="200.807" fill="#000" font-size="13" textLength="34.43">panel</text><text x="113.115" y="200.807" fill="#000" font-size="13"> </text><text x="117.229" y="200.807" fill="#000" font-size="13" textLength="41.177">Swing)</text><polygon points="405.016,230.859,415.016,234.859,405.016,238.859,409.016,234.859" fill="#181818" style="stroke:#181818;stroke-width:1;stroke-linejoin:miter;stroke-miterlimit:10;"/><line x1="231.525" y1="234.859" x2="411.016" y2="234.859" style="stroke:#181818;stroke-width:1;"/><text x="238.525" y="230.117" fill="#000" font-size="13" textLength="126.09">proxy_read_timeout</text><text x="364.615" y="230.117" fill="#000" font-size="13"> </text><text x="368.729" y="230.117" fill="#000" font-size="13" textLength="31.288">180s</text><polygon points="591.554,260.17,601.554,264.17,591.554,268.17,595.554,264.17" fill="#181818" style="stroke:#181818;stroke-width:1;stroke-linejoin:miter;stroke-miterlimit:10;"/><line x1="427.016" y1="264.17" x2="597.554" y2="264.17" style="stroke:#181818;stroke-width:1;"/><text x="434.016" y="259.428" fill="#000" font-size="13" textLength="54.761">cartelera</text><text x="488.777" y="259.428" fill="#000" font-size="13"> </text><text x="492.891" y="259.428" fill="#000" font-size="13" textLength="15.425">de</text><text x="508.315" y="259.428" fill="#000" font-size="13"> </text><text x="512.429" y="259.428" fill="#000" font-size="13" textLength="17.189">AR</text><line x1="613.554" y1="324.102" x2="655.554" y2="324.102" style="stroke:#181818;stroke-width:1;"/><line x1="655.554" y1="324.102" x2="655.554" y2="337.102" style="stroke:#181818;stroke-width:1;"/><line x1="614.554" y1="337.102" x2="655.554" y2="337.102" style="stroke:#181818;stroke-width:1;"/><polygon points="624.554,333.102,614.554,337.102,624.554,341.102,620.554,337.102" fill="#181818" style="stroke:#181818;stroke-width:1;stroke-linejoin:miter;stroke-miterlimit:10;"/><text x="620.554" y="288.738" fill="#000" font-size="13" textLength="78.413">now_playing</text><text x="698.967" y="288.738" fill="#000" font-size="13"> </text><text x="703.08" y="288.738" fill="#000" font-size="13">+</text><text x="713.414" y="288.738" fill="#000" font-size="13"> </text><text x="717.527" y="288.738" fill="#000" font-size="13" textLength="42.225">detalle</text><text x="620.554" y="304.049" fill="#000" font-size="13">+</text><text x="630.888" y="304.049" fill="#000" font-size="13"> </text><text x="635.001" y="304.049" fill="#000" font-size="13" textLength="85.205">release_dates</text><text x="620.554" y="319.359" fill="#000" font-size="13" textLength="19.652">(de</text><text x="640.207" y="319.359" fill="#000" font-size="13"> </text><text x="644.32" y="319.359" fill="#000" font-size="13">a</text><text x="651.499" y="319.359" fill="#000" font-size="13"> </text><text x="655.612" y="319.359" fill="#000" font-size="13">4</text><text x="663.833" y="319.359" fill="#000" font-size="13"> </text><text x="667.946" y="319.359" fill="#000" font-size="13" textLength="15.311">en</text><text x="683.256" y="319.359" fill="#000" font-size="13"> </text><text x="687.37" y="319.359" fill="#000" font-size="13" textLength="54.831">paralelo)</text><polygon points="800.997,362.412,810.997,366.412,800.997,370.412,804.997,366.412" fill="#181818" style="stroke:#181818;stroke-width:1;stroke-linejoin:miter;stroke-miterlimit:10;"/><line x1="613.554" y1="366.412" x2="806.997" y2="366.412" style="stroke:#181818;stroke-width:1;"/><text x="620.554" y="361.67" fill="#000" font-size="13" textLength="47.512">traduce</text><polygon points="624.554,422.344,614.554,426.344,624.554,430.344,620.554,426.344" fill="#181818" style="stroke:#181818;stroke-width:1;stroke-linejoin:miter;stroke-miterlimit:10;"/><line x1="618.554" y1="426.344" x2="811.997" y2="426.344" style="stroke:#181818;stroke-width:1;stroke-dasharray:2,2;"/><text x="630.554" y="390.98" fill="#000" font-size="13" textLength="16.44">19</text><text x="646.995" y="390.98" fill="#000" font-size="13"> </text><text x="651.108" y="390.98" fill="#000" font-size="13" textLength="50.591">generos</text><text x="701.699" y="390.98" fill="#000" font-size="13"> </text><text x="705.812" y="390.98" fill="#000" font-size="13" textLength="17.856">-></text><text x="723.668" y="390.98" fill="#000" font-size="13"> </text><text x="727.781" y="390.98" fill="#000" font-size="13">9</text><text x="630.554" y="406.291" fill="#000" font-size="13" textLength="20.846">ISO</text><text x="651.4" y="406.291" fill="#000" font-size="13"> </text><text x="655.513" y="406.291" fill="#000" font-size="13" textLength="24.661">639</text><text x="680.174" y="406.291" fill="#000" font-size="13"> </text><text x="684.287" y="406.291" fill="#000" font-size="13" textLength="17.856">-></text><text x="702.143" y="406.291" fill="#000" font-size="13"> </text><text x="706.256" y="406.291" fill="#000" font-size="13" textLength="32.925">texto</text><text x="630.554" y="421.602" fill="#000" font-size="13" textLength="18.453">sin</text><text x="649.007" y="421.602" fill="#000" font-size="13"> </text><text x="653.12" y="421.602" fill="#000" font-size="13" textLength="76.686">certificacion</text><text x="729.806" y="421.602" fill="#000" font-size="13"> </text><text x="733.919" y="421.602" fill="#000" font-size="13" textLength="17.856">-></text><text x="751.775" y="421.602" fill="#000" font-size="13"> </text><text x="755.889" y="421.602" fill="#000" font-size="13" textLength="50.108">MAS_13</text><polygon points="438.016,451.654,428.016,455.654,438.016,459.654,434.016,455.654" fill="#181818" style="stroke:#181818;stroke-width:1;stroke-linejoin:miter;stroke-miterlimit:10;"/><line x1="432.016" y1="455.654" x2="602.554" y2="455.654" style="stroke:#181818;stroke-width:1;stroke-dasharray:2,2;"/><text x="444.016" y="450.912" fill="#000" font-size="13" textLength="67.875">candidatas</text><path d="M406.016,467.654 L480.463,467.654 L480.463,474.965 L470.463,484.965 L406.016,484.965 L406.016,467.654" style="stroke:#000;stroke-width:1.5;" fill="#EEE"/><rect x="406.016" y="467.654" width="776.777" height="185.863" fill="none" style="stroke:#000;stroke-width:1.5;"/><text x="421.016" y="481.223" fill="#000" font-size="13" textLength="29.447" font-weight="700">loop</text><text x="495.463" y="480.289" fill="#000" font-size="11" textLength="131.726" font-weight="700">[una por vez, en orden]</text><line x1="427.016" y1="516.275" x2="469.016" y2="516.275" style="stroke:#181818;stroke-width:1;"/><line x1="469.016" y1="516.275" x2="469.016" y2="529.275" style="stroke:#181818;stroke-width:1;"/><line x1="428.016" y1="529.275" x2="469.016" y2="529.275" style="stroke:#181818;stroke-width:1;"/><polygon points="438.016,525.275,428.016,529.275,438.016,533.275,434.016,529.275" fill="#181818" style="stroke:#181818;stroke-width:1;stroke-linejoin:miter;stroke-miterlimit:10;"/><text x="434.016" y="511.533" fill="#000" font-size="13" textLength="20.554">R1:</text><text x="454.57" y="511.533" fill="#000" font-size="13"> </text><text x="458.683" y="511.533" fill="#000" font-size="13" textLength="13.971">ya</text><text x="472.654" y="511.533" fill="#000" font-size="13"> </text><text x="476.768" y="511.533" fill="#000" font-size="13" textLength="25.911">esta</text><text x="502.679" y="511.533" fill="#000" font-size="13"> </text><text x="506.792" y="511.533" fill="#000" font-size="13" textLength="21.112">ese</text><text x="527.904" y="511.533" fill="#000" font-size="13"> </text><text x="532.018" y="511.533" fill="#000" font-size="13" textLength="38.778">titulo?</text><polygon points="948.533,554.586,958.533,558.586,948.533,562.586,952.533,558.586" fill="#181818" style="stroke:#181818;stroke-width:1;stroke-linejoin:miter;stroke-miterlimit:10;"/><line x1="427.016" y1="558.586" x2="954.533" y2="558.586" style="stroke:#181818;stroke-width:1;"/><text x="434.016" y="553.844" fill="#000" font-size="13" textLength="66.27">alta(datos)</text><line x1="960.533" y1="587.896" x2="1002.533" y2="587.896" style="stroke:#181818;stroke-width:1;"/><line x1="1002.533" y1="587.896" x2="1002.533" y2="600.896" style="stroke:#181818;stroke-width:1;"/><line x1="961.533" y1="600.896" x2="1002.533" y2="600.896" style="stroke:#181818;stroke-width:1;"/><polygon points="971.533,596.896,961.533,600.896,971.533,604.896,967.533,600.896" fill="#181818" style="stroke:#181818;stroke-width:1;stroke-linejoin:miter;stroke-miterlimit:10;"/><text x="967.533" y="583.154" fill="#000" font-size="13" textLength="20.554">R2,</text><text x="988.086" y="583.154" fill="#000" font-size="13"> </text><text x="992.2" y="583.154" fill="#000" font-size="13" textLength="20.554">R7,</text><text x="1012.753" y="583.154" fill="#000" font-size="13"> </text><text x="1016.867" y="583.154" fill="#000" font-size="13" textLength="24.661">R10</text><polygon points="1154.793,641.518,1164.793,645.518,1154.793,649.518,1158.793,645.518" fill="#181818" style="stroke:#181818;stroke-width:1;stroke-linejoin:miter;stroke-miterlimit:10;"/><line x1="960.533" y1="645.518" x2="1160.793" y2="645.518" style="stroke:#181818;stroke-width:1;"/><text x="967.533" y="625.465" fill="#000" font-size="13" textLength="94.466">estadoRevision</text><text x="1061.999" y="625.465" fill="#000" font-size="13"> </text><text x="1066.112" y="625.465" fill="#000" font-size="13">=</text><text x="1076.446" y="625.465" fill="#000" font-size="13"> </text><text x="1080.559" y="625.465" fill="#000" font-size="13" textLength="69.234">PENDIENTE</text><text x="967.533" y="640.775" fill="#000" font-size="13" textLength="36.816">(fuera</text><text x="1004.349" y="640.775" fill="#000" font-size="13"> </text><text x="1008.462" y="640.775" fill="#000" font-size="13" textLength="15.425">de</text><text x="1023.887" y="640.775" fill="#000" font-size="13"> </text><text x="1028" y="640.775" fill="#000" font-size="13" textLength="58.989">cartelera)</text><polygon points="242.525,684.828,232.525,688.828,242.525,692.828,238.525,688.828" fill="#181818" style="stroke:#181818;stroke-width:1;stroke-linejoin:miter;stroke-miterlimit:10;"/><line x1="236.525" y1="688.828" x2="416.016" y2="688.828" style="stroke:#181818;stroke-width:1;stroke-dasharray:2,2;"/><text x="248.525" y="684.086" fill="#000" font-size="13" textLength="70.11">contadores</text><text x="318.635" y="684.086" fill="#000" font-size="13"> </text><text x="322.749" y="684.086" fill="#000" font-size="13" textLength="15.425">de</text><text x="338.173" y="684.086" fill="#000" font-size="13"> </text><text x="342.287" y="684.086" fill="#000" font-size="13" textLength="10.937">la</text><text x="353.224" y="684.086" fill="#000" font-size="13"> </text><text x="357.337" y="684.086" fill="#000" font-size="13" textLength="44.402">corrida</text><polygon points="59.39,714.139,49.39,718.139,59.39,722.139,55.39,718.139" fill="#181818" style="stroke:#181818;stroke-width:1;stroke-linejoin:miter;stroke-miterlimit:10;"/><line x1="53.39" y1="718.139" x2="230.525" y2="718.139" style="stroke:#181818;stroke-width:1;stroke-dasharray:2,2;"/><text x="65.39" y="713.396" fill="#000" font-size="13" textLength="24.661">200</text><text x="90.05" y="713.396" fill="#000" font-size="13"> </text><text x="94.164" y="713.396" fill="#000" font-size="13">+</text><text x="104.498" y="713.396" fill="#000" font-size="13"> </text><text x="108.611" y="713.396" fill="#000" font-size="13" textLength="54.704">resumen</text><path d="M908.588,731.139 L908.588,817.139 L1218.588,817.139 L1218.588,741.139 L1208.588,731.139 L908.588,731.139" style="stroke:#181818;stroke-width:0.5;" fill="#FEFFDD"/><path d="M1208.588,731.139 L1208.588,741.139 L1218.588,741.139 L1208.588,731.139" style="stroke:#181818;stroke-width:0.5;" fill="#FEFFDD"/><text x="939.729" y="748.707" fill="#000" font-size="13" textLength="226.129">Cae en el buzon "Por revisar", no en</text><text x="939.729" y="764.018" fill="#000" font-size="13" textLength="221.076">cartelera. GestorFunciones rechaza</text><text x="939.729" y="779.328" fill="#000" font-size="13" textLength="238.869">programar una pelicula sin confirmar.</text><text x="939.729" y="794.639" fill="#000" font-size="13" textLength="222.638">Lo descartado no se borra: si no, la</text><text x="939.729" y="809.949" fill="#000" font-size="13" textLength="226.186">corrida siguiente lo traeria otra vez.</text><?plantuml-src RLHTRzf047o_Nx7YAIWaG5grJQIsoWUbI26XXaSajDYBUwgvS-_EXEJNTywE8P7w429xP_TcPkSST2Y49jlIki2PTPG9fUo25EBuYXRJkniI4nmJ45Im9oTv_9T9GQasefJ_eqt9ZhVavMyb9fMfUC-vN1SwDrJ89hp1R7d_Mfxh5w6BmU1DSOQJTQfBDc76MQPDJiCBfJWDEBmpCc2MWsM7G62aoYEQEYRNPbyN7iRlAsFnQ7-Lc6fhn2-D5xVJgVGFMljrxtZoldUnpTO_GoYNHfkDOnzSbORAILyV76iQ5zFtZLCknSRkkZgzdlsFKo8xxK7ejYNHS4XKne7Nx8Mcp_DVz_7btOrI8phx1dLqHRF7-OBwNEgMHolhP6s3DRHmBEwunwM9syB9-9q_mTMkmXWC6qymh7Hs_xnomjagwAtOAj3moy17r_MEWqHJ5930BwR07yR6h5mdHnmy0A256VkqAWj-Zaiy1JHmKSZId290XK3R2Y9hofZ2z14fenY2GWhRVPq3sp08uSkgL5HyEckd3oyf5oFE-WYyN9h9_94-VRYCJq7smMB5sb0gC7sZqzgWPkHyDVnGps_rfsmo7HttAfEtObHXRKcLQRA_avTU96bT9aOHDOxK4vBX5JqpOQVnHoZeK1Ns-n6K0CH5u1CSOtqt5f938RdeKV8PVyF1eO1RTrNFosmR4lfAiz73tMJqi1Z1jKtrke73EhfAJDPigir9QasTKOdt5RSNBvo3rhT2iTqO1hICq87xI755ljf2fJ8M2Bj3cCP9BuQGw9Obse0ehQiNqEhCO8wB9DbrUbWxrVOSQ9rJ4_OVbMbI2d3wcryO84GlnxrdrxWiXKuhiAmtPyr6EvJEWRktuE_ZIAY9Hy3aDQJW2-KrddlG5izirE5TNcbyjI3PnlY8qqmsViImnFDe4qLXwXy0?></g></svg>