<svg xmlns="http://www.w3.org/2000/svg" xmlns:xlink="http://www.w3.org/1999/xlink" version="1.1" data-diagram-type="SEQUENCE" style="width:1240px;height:1027px;background:#FFFFFF;" width="1240px" height="1027px" viewBox="0 0 1240 1027" zoomAndPan="magnify" preserveAspectRatio="none" contentStyleType="text/css"><?plantuml 1.2026.8?><defs/><g font-family="sans-serif" lengthAdjust="spacing"><g class="title" data-source-line="1"><text x="394.828" y="28.535" fill="#000" font-size="14" textLength="448.731" font-weight="700">Una peticion, de punta a punta: contenedores, puertos y capas</text></g><rect x="8" y="45.488" width="1219.388" height="16.641" fill="#FFC" style="stroke:#FD8;stroke-width:3;" rx="2.5" ry="2.5"/><text x="15" y="56.129" fill="#000" font-size="10" textLength="361.23" font-family="monospace">Please use CSS style instead of skinparam ParticipantPadding</text><rect x="113.976" y="70.129" width="259.881" height="942.58" fill="#F7EBE3" style="stroke:#181818;stroke-width:0.5;"/><text x="174.873" y="82.697" fill="#000" font-size="13" textLength="138.087" font-weight="700">contenedor frontend</text><text x="174.873" y="98.008" fill="#000" font-size="13" textLength="57.084" font-weight="700">red: web</text><rect x="409.857" y="70.129" width="631.947" height="942.58" fill="#F2F0ED" style="stroke:#181818;stroke-width:0.5;"/><text x="657.79" y="82.697" fill="#000" font-size="13" textLength="136.081" font-weight="700">contenedor backend</text><text x="657.79" y="98.008" fill="#000" font-size="13" textLength="128.14" font-weight="700">redes: web + datos</text><rect x="1079.1" y="70.129" width="144.288" height="942.58" fill="#F2F0ED" style="stroke:#181818;stroke-width:0.5;"/><text x="1091.1" y="82.697" fill="#000" font-size="13" textLength="120.288" font-weight="700">contenedor mysql</text><text x="1091.1" y="98.008" fill="#000" font-size="13" textLength="66.815" font-weight="700">red: datos</text><g><title>Navegador</title><rect x="45.86" y="183.727" width="8" height="744.006" fill="#000" fill-opacity="0"/><line x1="49.36" y1="183.727" x2="49.36" y2="927.732" style="stroke:#181818;stroke-width:0.5;stroke-dasharray:5,5;"/></g><g><title>nginx</title><rect x="191.52" y="183.727" width="8" height="744.006" fill="#000" fill-opacity="0"/><line x1="195.02" y1="183.727" x2="195.02" y2="927.732" style="stroke:#181818;stroke-width:0.5;stroke-dasharray:5,5;"/></g><g><title>ReservaController</title><rect x="480.281" y="183.727" width="8" height="744.006" fill="#000" fill-opacity="0"/><line x1="483.781" y1="183.727" x2="483.781" y2="927.732" style="stroke:#181818;stroke-width:0.5;stroke-dasharray:5,5;"/></g><g><title>VistasVentas</title><rect x="628.448" y="183.727" width="8" height="744.006" fill="#000" fill-opacity="0"/><line x1="631.948" y1="183.727" x2="631.948" y2="927.732" style="stroke:#181818;stroke-width:0.5;stroke-dasharray:5,5;"/></g><g><title>GestorReservas</title><rect x="767.258" y="183.727" width="8" height="744.006" fill="#000" fill-opacity="0"/><line x1="770.758" y1="183.727" x2="770.758" y2="927.732" style="stroke:#181818;stroke-width:0.5;stroke-dasharray:5,5;"/></g><g><title></title><rect x="765.758" y="476.453" width="10" height="219.484" fill="#FFF" style="stroke:#181818;stroke-width:1;"/></g><g><title>ReservaRepository</title><rect x="963.542" y="183.727" width="8" height="744.006" fill="#000" fill-opacity="0"/><line x1="967.042" y1="183.727" x2="967.042" y2="927.732" style="stroke:#181818;stroke-width:0.5;stroke-dasharray:5,5;"/></g><g><title>MySQL</title><rect x="1147.744" y="183.727" width="8" height="744.006" fill="#000" fill-opacity="0"/><line x1="1151.244" y1="183.727" x2="1151.244" y2="927.732" style="stroke:#181818;stroke-width:0.5;stroke-dasharray:5,5;"/></g><text x="10" y="180.773" fill="#000" font-size="14" textLength="72.721">Navegador</text><ellipse cx="49.36" cy="115.738" rx="8" ry="8" fill="#E2E2F0" style="stroke:#181818;stroke-width:0.5;"/><path d="M49.36,123.738 L49.36,150.738 M36.36,131.738 L62.36,131.738 M49.36,150.738 L36.36,165.738 M49.36,150.738 L62.36,165.738" style="stroke:#181818;stroke-width:0.5;" fill="none"/><rect x="168.1" y="135.75" width="53.84" height="46.977" fill="#E2E2F0" style="stroke:#181818;stroke-width:0.5;" rx="2.5" ry="2.5"/><text x="175.65" y="156.285" fill="#000" font-size="14" textLength="38.739">nginx</text><text x="175.1" y="172.773" fill="#000" font-size="14" textLength="39.84">:8080</text><rect x="414.697" y="135.75" width="138.168" height="46.977" fill="#E2E2F0" style="stroke:#181818;stroke-width:0.5;" rx="2.5" ry="2.5"/><text x="423.552" y="156.285" fill="#000" font-size="14" textLength="120.456">ReservaController</text><text x="421.697" y="172.773" fill="#000" font-size="14" textLength="124.168">controller/ventas/</text><rect x="562.865" y="135.75" width="138.168" height="46.977" fill="#E2E2F0" style="stroke:#181818;stroke-width:0.5;" rx="2.5" ry="2.5"/><text x="588.855" y="156.285" fill="#000" font-size="14" textLength="86.188">VistasVentas</text><text x="569.865" y="172.773" fill="#000" font-size="14" textLength="124.168">controller/ventas/</text><rect x="711.032" y="135.75" width="119.451" height="46.977" fill="#E2E2F0" style="stroke:#181818;stroke-width:0.5;" rx="2.5" ry="2.5"/><text x="718.733" y="156.285" fill="#000" font-size="14" textLength="104.05">GestorReservas</text><text x="718.032" y="172.773" fill="#000" font-size="14" textLength="105.451">service/ventas/</text><rect x="896.28" y="135.75" width="141.524" height="46.977" fill="#E2E2F0" style="stroke:#181818;stroke-width:0.5;" rx="2.5" ry="2.5"/><text x="904.831" y="156.285" fill="#000" font-size="14" textLength="124.421">ReservaRepository</text><text x="903.28" y="172.773" fill="#000" font-size="14" textLength="127.524">repository/ventas/</text><text x="1125.617" y="164.285" fill="#000" font-size="14" textLength="45.254">MySQL</text><text x="1128.324" y="180.773" fill="#000" font-size="14" textLength="39.84">:3306</text><path d="M1133.244,114.75 C1133.244,104.75 1151.244,104.75 1151.244,104.75 C1151.244,104.75 1169.244,104.75 1169.244,114.75 L1169.244,140.75 C1169.244,150.75 1151.244,150.75 1151.244,150.75 C1151.244,150.75 1133.244,150.75 1133.244,140.75 L1133.244,114.75" style="stroke:#181818;stroke-width:0.5;" fill="#E2E2F0"/><path d="M1133.244,114.75 C1133.244,124.75 1151.244,124.75 1151.244,124.75 C1151.244,124.75 1169.244,124.75 1169.244,114.75" style="stroke:#181818;stroke-width:0.5;" fill="none"/><text x="10" y="941.268" fill="#000" font-size="14" textLength="72.721">Navegador</text><ellipse cx="49.36" cy="952.721" rx="8" ry="8" fill="#E2E2F0" style="stroke:#181818;stroke-width:0.5;"/><path d="M49.36,960.721 L49.36,987.721 M36.36,968.721 L62.36,968.721 M49.36,987.721 L36.36,1002.721 M49.36,987.721 L62.36,1002.721" style="stroke:#181818;stroke-width:0.5;" fill="none"/><rect x="168.1" y="927.732" width="53.84" height="46.977" fill="#E2E2F0" style="stroke:#181818;stroke-width:0.5;" rx="2.5" ry="2.5"/><text x="175.65" y="948.268" fill="#000" font-size="14" textLength="38.739">nginx</text><text x="175.1" y="964.756" fill="#000" font-size="14" textLength="39.84">:8080</text><rect x="414.697" y="927.732" width="138.168" height="46.977" fill="#E2E2F0" style="stroke:#181818;stroke-width:0.5;" rx="2.5" ry="2.5"/><text x="423.552" y="948.268" fill="#000" font-size="14" textLength="120.456">ReservaController</text><text x="421.697" y="964.756" fill="#000" font-size="14" textLength="124.168">controller/ventas/</text><rect x="562.865" y="927.732" width="138.168" height="46.977" fill="#E2E2F0" style="stroke:#181818;stroke-width:0.5;" rx="2.5" ry="2.5"/><text x="588.855" y="948.268" fill="#000" font-size="14" textLength="86.188">VistasVentas</text><text x="569.865" y="964.756" fill="#000" font-size="14" textLength="124.168">controller/ventas/</text><rect x="711.032" y="927.732" width="119.451" height="46.977" fill="#E2E2F0" style="stroke:#181818;stroke-width:0.5;" rx="2.5" ry="2.5"/><text x="718.733" y="948.268" fill="#000" font-size="14" textLength="104.05">GestorReservas</text><text x="718.032" y="964.756" fill="#000" font-size="14" textLength="105.451">service/ventas/</text><rect x="896.28" y="927.732" width="141.524" height="46.977" fill="#E2E2F0" style="stroke:#181818;stroke-width:0.5;" rx="2.5" ry="2.5"/><text x="904.831" y="948.268" fill="#000" font-size="14" textLength="124.421">ReservaRepository</text><text x="903.28" y="964.756" fill="#000" font-size="14" textLength="127.524">repository/ventas/</text><text x="1125.617" y="941.268" fill="#000" font-size="14" textLength="45.254">MySQL</text><text x="1128.324" y="957.756" fill="#000" font-size="14" textLength="39.84">:3306</text><path d="M1133.244,970.709 C1133.244,960.709 1151.244,960.709 1151.244,960.709 C1151.244,960.709 1169.244,960.709 1169.244,970.709 L1169.244,996.709 C1169.244,1006.709 1151.244,1006.709 1151.244,1006.709 C1151.244,1006.709 1133.244,1006.709 1133.244,996.709 L1133.244,970.709" style="stroke:#181818;stroke-width:0.5;" fill="#E2E2F0"/><path d="M1133.244,970.709 C1133.244,980.709 1151.244,980.709 1151.244,980.709 C1151.244,980.709 1169.244,980.709 1169.244,970.709" style="stroke:#181818;stroke-width:0.5;" fill="none"/><polygon points="183.02,224.348,193.02,228.348,183.02,232.348,187.02,228.348" fill="#181818" style="stroke:#181818;stroke-width:1;stroke-linejoin:miter;stroke-miterlimit:10;"/><line x1="49.36" y1="228.348" x2="189.02" y2="228.348" style="stroke:#181818;stroke-width:1;"/><text x="56.36" y="208.295" fill="#000" font-size="13" textLength="32.506">POST</text><text x="88.867" y="208.295" fill="#000" font-size="13"> </text><text x="92.98" y="208.295" fill="#000" font-size="13" textLength="85.04">/api/reservas</text><text x="56.36" y="223.605" fill="#000" font-size="13" textLength="93.875">localhost:8080</text><path d="M54.36,241.348 L54.36,281.348 L236.36,281.348 L236.36,251.348 L226.36,241.348 L54.36,241.348" style="stroke:#181818;stroke-width:0.5;" fill="#FEFFDD"/><path d="M226.36,241.348 L226.36,251.348 L236.36,251.348 L226.36,241.348" style="stroke:#181818;stroke-width:0.5;" fill="#FEFFDD"/><text x="60.36" y="258.916" fill="#000" font-size="13" textLength="161.294">El unico puerto publicado</text><text x="60.36" y="274.227" fill="#000" font-size="13" textLength="94.777">al host es este.</text><polygon points="471.781,319.59,481.781,323.59,471.781,327.59,475.781,323.59" fill="#181818" style="stroke:#181818;stroke-width:1;stroke-linejoin:miter;stroke-miterlimit:10;"/><line x1="195.02" y1="323.59" x2="477.781" y2="323.59" style="stroke:#181818;stroke-width:1;"/><text x="202.02" y="303.537" fill="#000" font-size="13" textLength="71.367">proxy_pass</text><text x="202.02" y="318.848" fill="#000" font-size="13" textLength="90.105">backend:8080</text><path d="M200.02,336.59 L200.02,376.59 L364.02,376.59 L364.02,346.59 L354.02,336.59 L200.02,336.59" style="stroke:#181818;stroke-width:0.5;" fill="#FEFFDD"/><path d="M354.02,336.59 L354.02,346.59 L364.02,346.59 L354.02,336.59" style="stroke:#181818;stroke-width:0.5;" fill="#FEFFDD"/><text x="206.02" y="354.158" fill="#000" font-size="13" textLength="143.838">Mismo origen: no hace</text><text x="206.02" y="369.469" fill="#000" font-size="13" textLength="70.3">falta CORS.</text><line x1="483.781" y1="418.832" x2="525.781" y2="418.832" style="stroke:#181818;stroke-width:1;"/><line x1="525.781" y1="418.832" x2="525.781" y2="431.832" style="stroke:#181818;stroke-width:1;"/><line x1="484.781" y1="431.832" x2="525.781" y2="431.832" style="stroke:#181818;stroke-width:1;"/><polygon points="494.781,427.832,484.781,431.832,494.781,435.832,490.781,431.832" fill="#181818" style="stroke:#181818;stroke-width:1;stroke-linejoin:miter;stroke-miterlimit:10;"/><text x="490.781" y="398.779" fill="#000" font-size="13" textLength="119.152">PedidoReservaDTO</text><text x="490.781" y="414.09" fill="#000" font-size="13" textLength="52.387">(Jackson</text><text x="543.168" y="414.09" fill="#000" font-size="13"> </text><text x="547.281" y="414.09" fill="#000" font-size="13" textLength="71.925">deserializa)</text><polygon points="753.758,472.453,763.758,476.453,753.758,480.453,757.758,476.453" fill="#181818" style="stroke:#181818;stroke-width:1;stroke-linejoin:miter;stroke-miterlimit:10;"/><line x1="483.781" y1="476.453" x2="759.758" y2="476.453" style="stroke:#181818;stroke-width:1;"/><text x="490.781" y="456.4" fill="#000" font-size="13" textLength="118.631">reservar(funcionId,</text><text x="609.412" y="456.4" fill="#000" font-size="13"> </text><text x="613.525" y="456.4" fill="#000" font-size="13" textLength="53.047">nombre,</text><text x="490.781" y="471.711" fill="#000" font-size="13" textLength="38.188">email,</text><text x="528.968" y="471.711" fill="#000" font-size="13"> </text><text x="533.081" y="471.711" fill="#000" font-size="13" textLength="52.87">butacas,</text><text x="585.951" y="471.711" fill="#000" font-size="13"> </text><text x="590.064" y="471.711" fill="#000" font-size="13" textLength="44.535">sesion)</text><line x1="775.758" y1="536.385" x2="817.758" y2="536.385" style="stroke:#181818;stroke-width:1;"/><line x1="817.758" y1="536.385" x2="817.758" y2="549.385" style="stroke:#181818;stroke-width:1;"/><line x1="776.758" y1="549.385" x2="817.758" y2="549.385" style="stroke:#181818;stroke-width:1;"/><polygon points="786.758,545.385,776.758,549.385,786.758,553.385,782.758,549.385" fill="#181818" style="stroke:#181818;stroke-width:1;stroke-linejoin:miter;stroke-miterlimit:10;"/><text x="782.758" y="501.021" fill="#000" font-size="13" textLength="55.136">coordina</text><text x="837.894" y="501.021" fill="#000" font-size="13"> </text><text x="842.007" y="501.021" fill="#000" font-size="13" textLength="24.661">R19</text><text x="866.668" y="501.021" fill="#000" font-size="13"> </text><text x="870.781" y="501.021" fill="#000" font-size="13">y</text><text x="877.573" y="501.021" fill="#000" font-size="13"> </text><text x="881.686" y="501.021" fill="#000" font-size="13" textLength="20.554">R4;</text><text x="902.24" y="501.021" fill="#000" font-size="13"> </text><text x="906.353" y="501.021" fill="#000" font-size="13" textLength="53.688">Funcion,</text><text x="782.758" y="516.332" fill="#000" font-size="13" textLength="47.512">Asiento</text><text x="830.27" y="516.332" fill="#000" font-size="13"> </text><text x="834.384" y="516.332" fill="#000" font-size="13">y</text><text x="841.176" y="516.332" fill="#000" font-size="13"> </text><text x="845.289" y="516.332" fill="#000" font-size="13" textLength="48.56">Reserva</text><text x="893.848" y="516.332" fill="#000" font-size="13"> </text><text x="897.962" y="516.332" fill="#000" font-size="13" textLength="44.853">validan</text><text x="942.814" y="516.332" fill="#000" font-size="13"> </text><text x="946.927" y="516.332" fill="#000" font-size="13" textLength="11.743">lo</text><text x="782.758" y="531.643" fill="#000" font-size="13" textLength="29.472">suyo</text><polygon points="955.042,574.695,965.042,578.695,955.042,582.695,959.042,578.695" fill="#181818" style="stroke:#181818;stroke-width:1;stroke-linejoin:miter;stroke-miterlimit:10;"/><line x1="775.758" y1="578.695" x2="961.042" y2="578.695" style="stroke:#181818;stroke-width:1;"/><text x="782.758" y="573.953" fill="#000" font-size="13" textLength="140.601">saveAndFlush(reserva)</text><polygon points="1139.244,604.006,1149.244,608.006,1139.244,612.006,1143.244,608.006" fill="#181818" style="stroke:#181818;stroke-width:1;stroke-linejoin:miter;stroke-miterlimit:10;"/><line x1="967.042" y1="608.006" x2="1145.244" y2="608.006" style="stroke:#181818;stroke-width:1;"/><text x="974.042" y="603.264" fill="#000" font-size="13" textLength="43.837">INSERT</text><text x="1017.879" y="603.264" fill="#000" font-size="13"> </text><text x="1021.992" y="603.264" fill="#000" font-size="13" textLength="45.659">reserva</text><text x="1067.651" y="603.264" fill="#000" font-size="13"> </text><text x="1071.764" y="603.264" fill="#000" font-size="13">+</text><text x="1082.098" y="603.264" fill="#000" font-size="13"> </text><text x="1086.211" y="603.264" fill="#000" font-size="13" textLength="48.033">entrada</text><polygon points="978.042,633.316,968.042,637.316,978.042,641.316,974.042,637.316" fill="#181818" style="stroke:#181818;stroke-width:1;stroke-linejoin:miter;stroke-miterlimit:10;"/><line x1="972.042" y1="637.316" x2="1150.244" y2="637.316" style="stroke:#181818;stroke-width:1;stroke-dasharray:2,2;"/><text x="984.042" y="632.574" fill="#000" font-size="13" textLength="11.94">id</text><polygon points="786.758,662.627,776.758,666.627,786.758,670.627,782.758,666.627" fill="#181818" style="stroke:#181818;stroke-width:1;stroke-linejoin:miter;stroke-miterlimit:10;"/><line x1="780.758" y1="666.627" x2="966.042" y2="666.627" style="stroke:#181818;stroke-width:1;stroke-dasharray:2,2;"/><text x="792.758" y="661.885" fill="#000" font-size="13" textLength="48.56">Reserva</text><polygon points="494.781,691.938,484.781,695.938,494.781,699.938,490.781,695.938" fill="#181818" style="stroke:#181818;stroke-width:1;stroke-linejoin:miter;stroke-miterlimit:10;"/><line x1="488.781" y1="695.938" x2="764.758" y2="695.938" style="stroke:#181818;stroke-width:1;stroke-dasharray:2,2;"/><text x="500.781" y="691.195" fill="#000" font-size="13" textLength="48.56">Reserva</text><polygon points="619.948,721.248,629.948,725.248,619.948,729.248,623.948,725.248" fill="#181818" style="stroke:#181818;stroke-width:1;stroke-linejoin:miter;stroke-miterlimit:10;"/><line x1="483.781" y1="725.248" x2="625.948" y2="725.248" style="stroke:#181818;stroke-width:1;"/><text x="490.781" y="720.506" fill="#000" font-size="13" textLength="102.673">reserva(Reserva)</text><polygon points="494.781,750.559,484.781,754.559,494.781,758.559,490.781,754.559" fill="#181818" style="stroke:#181818;stroke-width:1;stroke-linejoin:miter;stroke-miterlimit:10;"/><line x1="488.781" y1="754.559" x2="630.948" y2="754.559" style="stroke:#181818;stroke-width:1;stroke-dasharray:2,2;"/><text x="500.781" y="749.816" fill="#000" font-size="13" textLength="107.542">ReservaVistaDTO</text><polygon points="206.02,779.869,196.02,783.869,206.02,787.869,202.02,783.869" fill="#181818" style="stroke:#181818;stroke-width:1;stroke-linejoin:miter;stroke-miterlimit:10;"/><line x1="200.02" y1="783.869" x2="482.781" y2="783.869" style="stroke:#181818;stroke-width:1;stroke-dasharray:2,2;"/><text x="212.02" y="779.127" fill="#000" font-size="13" textLength="24.661">201</text><text x="236.68" y="779.127" fill="#000" font-size="13"> </text><text x="240.793" y="779.127" fill="#000" font-size="13">+</text><text x="251.127" y="779.127" fill="#000" font-size="13"> </text><text x="255.241" y="779.127" fill="#000" font-size="13" textLength="30.748">JSON</text><polygon points="60.36,809.18,50.36,813.18,60.36,817.18,56.36,813.18" fill="#181818" style="stroke:#181818;stroke-width:1;stroke-linejoin:miter;stroke-miterlimit:10;"/><line x1="54.36" y1="813.18" x2="194.02" y2="813.18" style="stroke:#181818;stroke-width:1;stroke-dasharray:2,2;"/><text x="66.36" y="808.438" fill="#000" font-size="13" textLength="24.661">201</text><text x="91.021" y="808.438" fill="#000" font-size="13"> </text><text x="95.134" y="808.438" fill="#000" font-size="13">+</text><text x="105.468" y="808.438" fill="#000" font-size="13"> </text><text x="109.582" y="808.438" fill="#000" font-size="13" textLength="30.748">JSON</text><path d="M418.857,826.18 L418.857,912.18 L1031.857,912.18 L1031.857,836.18 L1021.857,826.18 L418.857,826.18" style="stroke:#181818;stroke-width:0.5;" fill="#FEFFDD"/><path d="M1021.857,826.18 L1021.857,836.18 L1031.857,836.18 L1021.857,826.18" style="stroke:#181818;stroke-width:0.5;" fill="#FEFFDD"/><text x="545.979" y="843.748" fill="#000" font-size="13" textLength="265.681">Si el gestor tira IllegalArgumentException,</text><text x="545.979" y="859.059" fill="#000" font-size="13" textLength="281.728">ManejadorErrores (@RestControllerAdvice) la</text><text x="545.979" y="874.369" fill="#000" font-size="13" textLength="237.682">traduce a 400 con el mensaje intacto:</text><text x="545.979" y="889.68" fill="#000" font-size="13" textLength="217.077">ese texto se le muestra al usuario.</text><text x="545.979" y="904.99" fill="#000" font-size="13" textLength="349.864">RecursoNoEncontrado -> 404 · ButacaOcupada -> 409</text><?plantuml-src TLLjRo8t4Fw-ls94ln2LksnUrDvHgIeacuZJ1UX2etv0gWRliF6TiVTiBuNxO_tUNzQnMLYID1BIMlFoFEEPUOoNNX7yeH4gyb98etjG45IrzWYu__P16Er9Ks4ikHuRoNhZO0S2AtH9uhvANQ75DJZwLfCMz43EOKa39KiDYbR-96QDsyOzazy9BjFqn3b56ygeKFif5eNK9LoS-eTcUxHV9WaARooCSKCbSdM03iP9iZHRwBGrmyh6Sx7Gbee-_4tB3lnmztCspAuIWAgbX8ukfTukTFz3-Y7jHBZxqVZFX9E1KLz3Br5yFI2JYzZm8nJ8_GaSbtTfTlkI8oT7TeCtZ6ADKcGNMXpFvnlYbhlpI7uppp-_p7wKZlsFCUhDnCVHx6NUFJdkLSFDcU4h1JrBkyzcypUgpQaoJZB2BjprS7wMdMVJoTkTMk_SDzLCu5L_s81BT0ITXztizyyyWAkhzAU8UZjiCSVmxjVzHA0Fqybi3kTOoNDxl9Go0jMJSJuECD764rXPFdamAzuCW4n1hQKmpHBpPwcauDrX7oe8gK2EVvxUHzu0mSIHayd3H9YxicQx-ukNdpcR5VXVnhWy00_IhGqOjfFkCoGyeI2shr2np6uc-UoKB7AqN5CgP66QCTpE9mlT_SIKpcXMAXibAlaTpuvfOOYSrZJ5TbUr3heU5Jt6NoyjzHQQrYXL3vQrHu4iQKUEGyw2dkG6-Gfn4v88rK8AOonB3o6_-CZgpwz_WRizE4CEdEHTCC6-PuOD5rOWwz-0gtVcY1RsXD4SgtQWYpjLkwTkK-rP4fqST3laaD5ubkNpmrLOMCnWiS24lUzQ95aqQMsfJGqDPzlCWxsW5rSzT8-LqpQlcn_A2kRNC56BF993-ibsNgONNE-dsMHyM9xWVExORulPa8sulRs206OII44P1GjUMeGHAxn4DR1blUOUP5j1bGzz3yk5chw4ro-pDZpGqFsDo_Fjyp8eWj3FG257X_xLWlXjlqxJyB07AiPq-8L0ifZvHUrp75yGF6rve7pWluXrpPXS2OkaTZLQQTvpL4wYjiwCJRP_YRYCqCJhz1h-_GU6SRqcegvuPdlxntRF_mC0?></g></svg>