<svg xmlns="http://www.w3.org/2000/svg" xmlns:xlink="http://www.w3.org/1999/xlink" version="1.1" data-diagram-type="DESCRIPTION" style="width:1223px;height:961px;background:#FFFFFF;" width="1223px" height="961px" viewBox="0 0 1223 961" zoomAndPan="magnify" preserveAspectRatio="none" contentStyleType="text/css"><?plantuml 1.2026.7?><defs/><g font-family="sans-serif" lengthAdjust="spacing"><g class="title" data-source-line="1"><text x="348.164" y="23.535" fill="#000" font-size="14" textLength="519.996" font-weight="700">Terminal de boleteria y servidor - dos instalaciones, una sincronizacion</text></g><!--cluster term--><g class="cluster" data-qualified-name="term" id="ent0001" data-source-line="6"><polygon points="204.736,169.478,214.736,159.478,512.736,159.478,512.736,623.408,502.736,633.408,204.736,633.408,204.736,169.478" fill="none" style="stroke:#181818;stroke-width:1;stroke-linejoin:miter;stroke-miterlimit:10;"/><line x1="502.736" y1="169.478" x2="512.736" y2="159.478" style="stroke:#181818;stroke-width:1;"/><line x1="204.736" y1="169.478" x2="502.736" y2="169.478" style="stroke:#181818;stroke-width:1;"/><line x1="502.736" y1="169.478" x2="502.736" y2="633.408" style="stroke:#181818;stroke-width:1;"/><text x="292.635" y="186.013" fill="#000" font-size="14" textLength="124.202" font-weight="700">Boleteria del cine</text></g><!--cluster Nativo--><g class="cluster" data-qualified-name="term.Nativo" id="ent0002" data-source-line="7"><rect x="280.736" y="207.478" width="162" height="113.98" fill="none" style="stroke:#181818;stroke-width:1;" rx="2.5" ry="2.5"/><path d="M337.2,207.478 L337.2,216.967 L327.2,226.967 L280.736,226.967" style="stroke:#181818;stroke-width:1;" fill="none"/><text x="283.736" y="222.013" fill="#000" font-size="14" textLength="46.464" font-weight="700">Nativo</text></g><!--cluster docker compose (reducido)--><g class="cluster" data-qualified-name="term.docker compose .reducido." id="ent0004" data-source-line="10"><rect x="228.736" y="370.458" width="260" height="238.95" fill="none" style="stroke:#181818;stroke-width:1;" rx="2.5" ry="2.5"/><path d="M435.003,370.458 L435.003,379.947 L425.003,389.947 L228.736,389.947" style="stroke:#181818;stroke-width:1;" fill="none"/><text x="231.736" y="384.993" fill="#000" font-size="14" textLength="196.267" font-weight="700">docker compose (reducido)</text></g><!--cluster srv--><g class="cluster" data-qualified-name="srv" id="ent0007" data-source-line="16"><polygon points="536.736,169.478,546.736,159.478,799.736,159.478,799.736,615.668,789.736,625.668,536.736,625.668,536.736,169.478" fill="none" style="stroke:#181818;stroke-width:1;stroke-linejoin:miter;stroke-miterlimit:10;"/><line x1="789.736" y1="169.478" x2="799.736" y2="159.478" style="stroke:#181818;stroke-width:1;"/><line x1="536.736" y1="169.478" x2="789.736" y2="169.478" style="stroke:#181818;stroke-width:1;"/><line x1="789.736" y1="169.478" x2="789.736" y2="625.668" style="stroke:#181818;stroke-width:1;"/><text x="634.233" y="186.013" fill="#000" font-size="14" textLength="60.006" font-weight="700">Servidor</text></g><!--cluster docker compose (completo)--><g class="cluster" data-qualified-name="srv.docker compose .completo." id="ent0008" data-source-line="17"><rect x="560.736" y="207.478" width="215" height="394.19" fill="none" style="stroke:#181818;stroke-width:1;" rx="2.5" ry="2.5"/><path d="M770.359,207.478 L770.359,216.967 L760.359,226.967 L560.736,226.967" style="stroke:#181818;stroke-width:1;" fill="none"/><text x="563.736" y="222.013" fill="#000" font-size="14" textLength="199.623" font-weight="700">docker compose (completo)</text></g><!--entity swing--><g class="entity" data-qualified-name="term.Nativo.swing" id="ent0003" data-source-line="8"><polygon points="296.546,252.478,306.546,242.478,426.931,242.478,426.931,295.455,416.931,305.455,296.546,305.455,296.546,252.478" fill="#F1F1F1" style="stroke:#181818;stroke-width:0.5;stroke-linejoin:miter;stroke-miterlimit:10;"/><line x1="416.931" y1="252.478" x2="426.931" y2="242.478" style="stroke:#181818;stroke-width:0.5;"/><line x1="296.546" y1="252.478" x2="416.931" y2="252.478" style="stroke:#181818;stroke-width:0.5;"/><line x1="416.931" y1="252.478" x2="416.931" y2="305.455" style="stroke:#181818;stroke-width:0.5;"/><text x="311.546" y="276.013" fill="#000" font-size="14" textLength="90.385">cine-desktop</text><text x="311.546" y="292.502" fill="#000" font-size="14" textLength="71.285">Java Swing</text></g><!--entity backLocal--><g class="entity" data-qualified-name="term.docker compose .reducido..backLocal" id="ent0005" data-source-line="11"><polygon points="302.506,415.458,312.506,405.458,420.969,405.458,420.969,458.435,410.969,468.435,302.506,468.435,302.506,415.458" fill="#F1F1F1" style="stroke:#181818;stroke-width:0.5;stroke-linejoin:miter;stroke-miterlimit:10;"/><line x1="410.969" y1="415.458" x2="420.969" y2="405.458" style="stroke:#181818;stroke-width:0.5;"/><line x1="302.506" y1="415.458" x2="410.969" y2="415.458" style="stroke:#181818;stroke-width:0.5;"/><line x1="410.969" y1="415.458" x2="410.969" y2="468.435" style="stroke:#181818;stroke-width:0.5;"/><text x="317.506" y="438.993" fill="#000" font-size="14" textLength="57.196">backend</text><text x="317.506" y="455.482" fill="#000" font-size="14" textLength="78.463">Spring Boot</text></g><!--entity dbLocal--><g class="entity" data-qualified-name="term.docker compose .reducido..dbLocal" id="ent0006" data-source-line="12"><path d="M245.046,541.428 C245.046,531.428 358.74,531.428 358.74,531.428 C358.74,531.428 472.435,531.428 472.435,541.428 L472.435,583.405 C472.435,593.405 358.74,593.405 358.74,593.405 C358.74,593.405 245.046,593.405 245.046,583.405 L245.046,541.428" style="stroke:#181818;stroke-width:0.5;" fill="#F1F1F1"/><path d="M245.046,541.428 C245.046,551.428 358.74,551.428 358.74,551.428 C358.74,551.428 472.435,551.428 472.435,541.428" style="stroke:#181818;stroke-width:0.5;" fill="none"/><text x="255.046" y="568.963" fill="#000" font-size="14" textLength="81.279">MySQL local</text><text x="255.046" y="585.452" fill="#000" font-size="14" textLength="207.389">AUTO_INCREMENT = 1000000</text></g><!--entity nginx--><g class="entity" data-qualified-name="srv.docker compose .completo..nginx" id="ent0009" data-source-line="18"><polygon points="576.606,252.478,586.606,242.478,690.865,242.478,690.865,295.455,680.865,305.455,576.606,305.455,576.606,252.478" fill="#F1F1F1" style="stroke:#181818;stroke-width:0.5;stroke-linejoin:miter;stroke-miterlimit:10;"/><line x1="680.865" y1="252.478" x2="690.865" y2="242.478" style="stroke:#181818;stroke-width:0.5;"/><line x1="576.606" y1="252.478" x2="680.865" y2="252.478" style="stroke:#181818;stroke-width:0.5;"/><line x1="680.865" y1="252.478" x2="680.865" y2="305.455" style="stroke:#181818;stroke-width:0.5;"/><text x="591.606" y="276.013" fill="#000" font-size="14" textLength="38.739">nginx</text><text x="591.606" y="292.502" fill="#000" font-size="14" textLength="74.259">+ frontend</text></g><!--entity backSrv--><g class="entity" data-qualified-name="srv.docker compose .completo..backSrv" id="ent0010" data-source-line="19"><polygon points="579.136,423.698,589.136,413.698,676.332,413.698,676.332,450.187,666.332,460.187,579.136,460.187,579.136,423.698" fill="#F1F1F1" style="stroke:#181818;stroke-width:0.5;stroke-linejoin:miter;stroke-miterlimit:10;"/><line x1="666.332" y1="423.698" x2="676.332" y2="413.698" style="stroke:#181818;stroke-width:0.5;"/><line x1="579.136" y1="423.698" x2="666.332" y2="423.698" style="stroke:#181818;stroke-width:0.5;"/><line x1="666.332" y1="423.698" x2="666.332" y2="460.187" style="stroke:#181818;stroke-width:0.5;"/><text x="594.136" y="447.233" fill="#000" font-size="14" textLength="57.196">backend</text></g><!--entity dbSrv--><g class="entity" data-qualified-name="srv.docker compose .completo..dbSrv" id="ent0011" data-source-line="20"><path d="M577.106,549.678 C577.106,539.678 609.733,539.678 609.733,539.678 C609.733,539.678 642.36,539.678 642.36,549.678 L642.36,575.167 C642.36,585.167 609.733,585.167 609.733,585.167 C609.733,585.167 577.106,585.167 577.106,575.167 L577.106,549.678" style="stroke:#181818;stroke-width:0.5;" fill="#F1F1F1"/><path d="M577.106,549.678 C577.106,559.678 609.733,559.678 609.733,559.678 C609.733,559.678 642.36,559.678 642.36,549.678" style="stroke:#181818;stroke-width:0.5;" fill="none"/><text x="587.106" y="577.213" fill="#000" font-size="14" textLength="45.254">MySQL</text></g><!--entity redis--><g class="entity" data-qualified-name="srv.docker compose .completo..redis" id="ent0012" data-source-line="21"><polygon points="666.976,549.178,676.976,539.178,740.5,539.178,740.5,575.667,730.5,585.667,666.976,585.667,666.976,549.178" fill="#F1F1F1" style="stroke:#181818;stroke-width:0.5;stroke-linejoin:miter;stroke-miterlimit:10;"/><line x1="730.5" y1="549.178" x2="740.5" y2="539.178" style="stroke:#181818;stroke-width:0.5;"/><line x1="666.976" y1="549.178" x2="730.5" y2="549.178" style="stroke:#181818;stroke-width:0.5;"/><line x1="730.5" y1="549.178" x2="730.5" y2="585.667" style="stroke:#181818;stroke-width:0.5;"/><text x="681.976" y="572.713" fill="#000" font-size="14" textLength="33.523">redis</text></g><!--entity cajero--><g class="entity" data-qualified-name="cajero" id="ent0013" data-source-line="25"><ellipse cx="361.738" cy="51.488" rx="8" ry="8" fill="#F1F1F1" style="stroke:#181818;stroke-width:0.5;"/><path d="M361.738,59.488 L361.738,86.488 M348.738,67.488 L374.738,67.488 M361.738,86.488 L348.738,101.488 M361.738,86.488 L374.738,101.488" style="stroke:#181818;stroke-width:0.5;" fill="none"/><text x="339.836" y="116.523" fill="#000" font-size="14" textLength="43.805">Cajero</text></g><!--entity web--><g class="entity" data-qualified-name="web" id="ent0014" data-source-line="26"><ellipse cx="633.733" cy="51.488" rx="8" ry="8" fill="#F1F1F1" style="stroke:#181818;stroke-width:0.5;"/><path d="M633.733,59.488 L633.733,86.488 M620.733,67.488 L646.733,67.488 M633.733,86.488 L620.733,101.488 M633.733,86.488 L646.733,101.488" style="stroke:#181818;stroke-width:0.5;" fill="none"/><text x="594.166" y="116.523" fill="#000" font-size="14" textLength="79.133">Cliente web</text></g><g class="entity" data-qualified-name="GMN23" id="ent0024" data-source-line="40"><path d="M815.876,534.458 L815.876,590.39 L1019.587,590.39 L1019.587,544.458 L1009.587,534.458 L815.876,534.458" style="stroke:#181818;stroke-width:0.5;" fill="#FEFFDD"/><path d="M1009.587,534.458 L1009.587,544.458 L1019.587,544.458 L1009.587,534.458" style="stroke:#181818;stroke-width:1;" fill="#FEFFDD"/><text x="821.876" y="552.027" fill="#000" font-size="13" textLength="148.472">Sin redis: una sola caja,</text><text x="821.876" y="567.337" fill="#000" font-size="13" textLength="182.711">no hay butacas que bloquear</text><text x="821.876" y="582.648" fill="#000" font-size="13" textLength="94.593">entre usuarios.</text></g><!--link cajero to swing--><g class="link" data-entity-1="ent0013" data-entity-2="ent0003" id="lnk15" data-source-line="28" data-link-type="dependency"><path d="M361.736,119.918 C361.736,155.748 361.736,203.968 361.736,237.278" style="stroke:#181818;stroke-width:1;" fill="none" id="cajero-to-swing"/><polygon points="361.736,242.278,365.736,233.278,361.736,237.278,357.736,233.278,361.736,242.278" fill="#181818" style="stroke:#181818;stroke-width:1;stroke-linejoin:miter;stroke-miterlimit:10;"/></g><!--link swing to backLocal--><g class="link" data-entity-1="ent0003" data-entity-2="ent0005" id="lnk16" data-source-line="29" data-link-type="dependency"><path d="M361.736,305.628 C361.736,334.178 361.736,371.518 361.736,400.128" style="stroke:#181818;stroke-width:1;" fill="none" id="swing-to-backLocal"/><polygon points="361.736,405.128,365.736,396.128,361.736,400.128,357.736,396.128,361.736,405.128" fill="#181818" style="stroke:#181818;stroke-width:1;stroke-linejoin:miter;stroke-miterlimit:10;"/><text x="362.736" y="351.027" fill="#000" font-size="13" textLength="131.168">HTTP localhost:8080</text></g><!--link backLocal to dbLocal--><g class="link" data-entity-1="ent0005" data-entity-2="ent0006" id="lnk17" data-source-line="30" data-link-type="dependency"><path d="M360.986,468.778 C360.526,487.788 360.058,507.05 359.598,525.97" style="stroke:#181818;stroke-width:1;" fill="none" id="backLocal-to-dbLocal"/><polygon points="359.476,530.968,363.694,522.068,359.598,525.97,355.696,521.874,359.476,530.968" fill="#181818" style="stroke:#181818;stroke-width:1;stroke-linejoin:miter;stroke-miterlimit:10;"/></g><!--link web to nginx--><g class="link" data-entity-1="ent0014" data-entity-2="ent0009" id="lnk18" data-source-line="32" data-link-type="dependency"><path d="M633.736,119.918 C633.736,155.748 633.736,203.968 633.736,237.278" style="stroke:#181818;stroke-width:1;" fill="none" id="web-to-nginx"/><polygon points="633.736,242.278,637.736,233.278,633.736,237.278,629.736,233.278,633.736,242.278" fill="#181818" style="stroke:#181818;stroke-width:1;stroke-linejoin:miter;stroke-miterlimit:10;"/></g><!--link nginx to backSrv--><g class="link" data-entity-1="ent0009" data-entity-2="ent0010" id="lnk19" data-source-line="33" data-link-type="dependency"><path d="M632.596,305.628 C631.416,337.188 629.803,380.612 628.753,408.682" style="stroke:#181818;stroke-width:1;" fill="none" id="nginx-to-backSrv"/><polygon points="628.566,413.678,632.9,404.834,628.753,408.682,624.905,404.535,628.566,413.678" fill="#181818" style="stroke:#181818;stroke-width:1;stroke-linejoin:miter;stroke-miterlimit:10;"/><text x="632.276" y="351.027" fill="#000" font-size="13" textLength="66.301">proxy /api</text></g><!--link backSrv to dbSrv--><g class="link" data-entity-1="ent0010" data-entity-2="ent0011" id="lnk20" data-source-line="34" data-link-type="dependency"><path d="M624.436,460.588 C621.166,483.008 616.918,512.161 613.678,534.381" style="stroke:#181818;stroke-width:1;" fill="none" id="backSrv-to-dbSrv"/><polygon points="612.956,539.328,618.213,531,613.678,534.381,610.297,529.845,612.956,539.328" fill="#181818" style="stroke:#181818;stroke-width:1;stroke-linejoin:miter;stroke-miterlimit:10;"/></g><!--link backSrv to redis--><g class="link" data-entity-1="ent0010" data-entity-2="ent0012" id="lnk21" data-source-line="35" data-link-type="dependency"><path d="M641.676,460.588 C655.386,482.868 673.586,512.43 687.266,534.66" style="stroke:#181818;stroke-width:1;stroke-dasharray:7,7;" fill="none" id="backSrv-to-redis"/><polygon points="689.886,538.918,688.576,529.157,687.266,534.66,681.763,533.35,689.886,538.918" fill="#181818" style="stroke:#181818;stroke-width:1;stroke-linejoin:miter;stroke-miterlimit:10;"/><text x="671.286" y="504.997" fill="#000" font-size="13" textLength="58.03">bloqueos</text></g><!--link backLocal to backSrv--><g class="link" data-entity-1="ent0005" data-entity-2="ent0010" id="lnk22" data-source-line="37" data-link-type="dependency"><path d="M426.436,436.948 C473.916,436.948 529.526,436.948 573.916,436.948" style="stroke:#181818;stroke-width:1;" fill="none" id="backLocal-backSrv"/><polygon points="421.436,436.948,430.436,440.948,426.436,436.948,430.436,432.948,421.436,436.948" fill="#181818" style="stroke:#181818;stroke-width:1;stroke-linejoin:miter;stroke-miterlimit:10;"/><polygon points="578.916,436.948,569.916,432.948,573.916,436.948,569.916,440.948,578.916,436.948" fill="#181818" style="stroke:#181818;stroke-width:1;stroke-linejoin:miter;stroke-miterlimit:10;"/><text x="436.056" y="430.517" fill="#000" font-size="13" textLength="128.635">sincronizacion HTTP</text></g><!--link dbLocal to GMN23--><g class="link" data-entity-1="ent0006" data-entity-2="ent0024" id="lnk25" data-source-line="40" data-link-type="association"><path d="M446.516,531.008 C485.406,518.678 532.046,506.038 575.236,499.928 C648.726,489.538 669.096,487.298 742.236,499.928 C780.636,506.568 821.776,520.798 854.556,534.008" style="stroke:#181818;stroke-width:1;stroke-dasharray:7,7;" fill="none" id="dbLocal-GMN23"/></g><g class="legend" data-source-line="45"><rect x="12" y="664.408" width="1192.323" height="277.813" fill="#DDD" style="stroke:#000;stroke-width:1;" rx="7.5" ry="7.5"/><text x="21.614" y="684.943" fill="#000" font-size="14" textLength="28.93" font-weight="700">Que</text><text x="244.931" y="684.943" fill="#000" font-size="14" textLength="66.281">= Sentido</text><text x="782.099" y="684.943" fill="#000" font-size="14" textLength="50.518" font-weight="700">Detalle</text><text x="21.43" y="701.432" fill="#000" font-size="14" textLength="175.875">Peliculas, funciones, salas</text><text x="244.931" y="701.432" fill="#000" font-size="14" textLength="28.533">baja</text><text x="781.914" y="701.432" fill="#000" font-size="14" textLength="247.256">La terminal las consume, no las crea</text><text x="21.43" y="717.92" fill="#000" font-size="14" textLength="143.609">Reservas ya vendidas</text><text x="244.931" y="717.92" fill="#000" font-size="14" textLength="28.533">baja</text><text x="781.914" y="717.92" fill="#000" font-size="14" textLength="412.979">Para poder validar en la puerta un codigo comprado por web</text><text x="21.43" y="734.408" fill="#000" font-size="14" textLength="214.642">Reservas y pagos de la terminal</text><text x="244.931" y="734.408" fill="#000" font-size="14" textLength="32.437">sube</text><text x="781.914" y="734.408" fill="#000" font-size="14" textLength="155.319">Al toque de cada venta</text><text x="21.43" y="750.897" fill="#000" font-size="14" textLength="49.287">Arqueo</text><text x="244.931" y="750.897" fill="#000" font-size="14">—</text><text x="781.914" y="750.897" fill="#000" font-size="14" textLength="317.522">Solo en la version web, despues de sincronizar</text><text x="17" y="767.385" fill="#000" font-size="14" textLength="8.859">  </text><text x="240.501" y="767.385" fill="#000" font-size="14" textLength="8.859">  </text><text x="777.484" y="767.385" fill="#000" font-size="14" textLength="8.859">  </text><text x="21.614" y="783.873" fill="#000" font-size="14" textLength="86.789" font-weight="700">Estado local</text><text x="245.115" y="783.873" fill="#000" font-size="14" textLength="95.033" font-weight="700">Que significa</text><text x="782.099" y="783.873" fill="#000" font-size="14" textLength="87.356" font-weight="700">Que se hace</text><text x="21.43" y="800.361" fill="#000" font-size="14" textLength="74.56">PENDIENTE</text><text x="244.931" y="800.361" fill="#000" font-size="14" textLength="116.45">Todavia no subio</text><text x="781.914" y="800.361" fill="#000" font-size="14" textLength="175.239">Reintentar desde el boton</text><text x="21.43" y="816.85" fill="#000" font-size="14" textLength="103.975">SINCRONIZADA</text><text x="244.931" y="816.85" fill="#000" font-size="14" textLength="137.149">El servidor la acepto</text><text x="781.914" y="816.85" fill="#000" font-size="14" textLength="34.617">Nada</text><text x="21.43" y="833.338" fill="#000" font-size="14" textLength="84.342">RECHAZADA</text><text x="244.931" y="833.338" fill="#000" font-size="14" textLength="230.091">El servidor la rechazo, con motivo</text><text x="781.914" y="833.338" fill="#000" font-size="14" textLength="193.416">Lo resuelve el cajero a mano</text><text x="17" y="849.826" fill="#000" font-size="14" textLength="8.859">  </text><text x="240.501" y="849.826" fill="#000" font-size="14" textLength="8.859">  </text><text x="777.484" y="849.826" fill="#000" font-size="14" textLength="8.859">  </text><text x="21.614" y="866.315" fill="#000" font-size="14" textLength="61.913" font-weight="700">Decision</text><text x="245.115" y="866.315" fill="#000" font-size="14" textLength="55.18" font-weight="700">Por que</text><text x="21.43" y="882.803" fill="#000" font-size="14" textLength="91.458">Ids por rango</text><text x="244.931" y="882.803" fill="#000" font-size="14" textLength="528.124">La terminal arranca en 1.000.000 y el servidor en 1: no chocan al sincronizar,</text><text x="17" y="899.291" fill="#000" font-size="14" textLength="8.859">  </text><text x="244.931" y="899.291" fill="#000" font-size="14" textLength="409.821">y no hay que cambiar @GeneratedValue en ninguna entidad.</text><text x="21.43" y="915.779" fill="#000" font-size="14" textLength="146.686">Sin cola de reintentos</text><text x="244.931" y="915.779" fill="#000" font-size="14" textLength="463.326">La venta sube al toque. Si falla, queda PENDIENTE y se sube a mano.</text><text x="21.43" y="932.268" fill="#000" font-size="14" textLength="121.393">Swing habla HTTP</text><text x="244.931" y="932.268" fill="#000" font-size="14" textLength="517.768">Es un cliente mas, como el navegador: no duplica ninguna regla de negocio.</text><line x1="17" y1="671.408" x2="1199.323" y2="671.408" style="stroke:#000;stroke-width:1;"/><line x1="17" y1="687.897" x2="1199.323" y2="687.897" style="stroke:#000;stroke-width:1;"/><line x1="17" y1="704.385" x2="1199.323" y2="704.385" style="stroke:#000;stroke-width:1;"/><line x1="17" y1="720.873" x2="1199.323" y2="720.873" style="stroke:#000;stroke-width:1;"/><line x1="17" y1="737.361" x2="1199.323" y2="737.361" style="stroke:#000;stroke-width:1;"/><line x1="17" y1="753.85" x2="1199.323" y2="753.85" style="stroke:#000;stroke-width:1;"/><line x1="17" y1="770.338" x2="1199.323" y2="770.338" style="stroke:#000;stroke-width:1;"/><line x1="17" y1="786.826" x2="1199.323" y2="786.826" style="stroke:#000;stroke-width:1;"/><line x1="17" y1="803.315" x2="1199.323" y2="803.315" style="stroke:#000;stroke-width:1;"/><line x1="17" y1="819.803" x2="1199.323" y2="819.803" style="stroke:#000;stroke-width:1;"/><line x1="17" y1="836.291" x2="1199.323" y2="836.291" style="stroke:#000;stroke-width:1;"/><line x1="17" y1="852.779" x2="1199.323" y2="852.779" style="stroke:#000;stroke-width:1;"/><line x1="17" y1="869.268" x2="1199.323" y2="869.268" style="stroke:#000;stroke-width:1;"/><line x1="17" y1="885.756" x2="1199.323" y2="885.756" style="stroke:#000;stroke-width:1;"/><line x1="17" y1="902.244" x2="1199.323" y2="902.244" style="stroke:#000;stroke-width:1;"/><line x1="17" y1="918.733" x2="1199.323" y2="918.733" style="stroke:#000;stroke-width:1;"/><line x1="17" y1="935.221" x2="1199.323" y2="935.221" style="stroke:#000;stroke-width:1;"/><line x1="17" y1="671.408" x2="17" y2="935.221" style="stroke:#000;stroke-width:1;"/><line x1="240.501" y1="671.408" x2="240.501" y2="935.221" style="stroke:#000;stroke-width:1;"/><line x1="777.484" y1="671.408" x2="777.484" y2="935.221" style="stroke:#000;stroke-width:1;"/><line x1="1199.323" y1="671.408" x2="1199.323" y2="935.221" style="stroke:#000;stroke-width:1;"/></g><?plantuml-src RLNRRjj647tdLmpqrAAowXGD41X9KCKM6XUEuaHg7me3nP1SKLilTzdT9HEbDj2Fo1VsItfcIKgoQqEcbZEpCsVEN1HrD8hMojVQig5IKUwCYifhfXq5vJjTEaydLBf0seR8XWljh0fJQYrJqBRmpkelIPfbuLRRXZtNP5sfWcheX-T7Gi_sLeG_FiyoCQ39ctsuKXagj5KJua0GrVHtHhJ1DPWjEUhEJPA8gBygnYS8SXjTSsD_uOvfzKdRAZa8SeBn_S57wOfRvQbmTUE2ec-yAji2wNtxq6tECBFbZLqr7ZxeZNCnkHJ5bIlO9EEI8-SCFvDtkzM7ApAYkR7pNzVl_xXSddzSl5iir_IAdfscl-IXpCVxzzdzoC1g8Bc7xRlZj1z3bWFuUWpPLjf-lh7VuPgp4U2JhoJzVsBxN5Q-UogJ0UcexU-2AnsI9ft63BY8w8x9EV-fl4lg8Xtt2gCL0D4dbISjlhEiDw6JazT3bT8plUyffZDwkrvVzwnkNOXdBqvVd6O7lLYFT6PmcmHznkcvTuSyuApnxlEElkT6PwEmzo1fZfBPx7MV7YxanltLAXUoevWl7xXysFe9hfGKsNfTRIEvpL6zLzhshi_wiN66XIgUPi8mRNb7UHkv04S8EqHd3otuyuhQqBBNBimoL90aIfOPLSbBxc9qDIplNj47tBr3qwrm2pqbeWk5cSMCtua5NIkZYzOmndVJsd6I0wOwG9i34RwkECrVsWYYA9mDRQscWZIzUyM3luzATWHaEwOEQ7HvxEWQGqyD6iXJnmOwZtJWWffM-SYW0hvBNRdKuPw1k47RI3aVkwU6AwmWzA8vGdT7eSqbvRcXA9I9GS5b0XD7a7ClfSJXtt--uhbonWquEkM350yHfxWQW2l5EDJM3px6Jy_p0eiGO5DtZhm7NLczqGNl1GfrBVRCBvONbrW92vpNhkGEAmzy0hzsALCjaniH43W00TiGbGMs_lfATihxvUNlyuivNXVci9oH1y8qKTmi9VU1kyNvs_dJvbuLM_xYfb9PgfsiLYcxWoAqodGf-Z2cJ3K3vrCiNAX29_fmlePduR-tkon3gYJsVUKUTHHxIC4IAl1iXiqe_wYlEe8egZDXfzY2OKkuTLIHwG7CRXmU2LrmdMlmzzFFoYhFKPM_iO4StYmMZCnT6WikPoEfMXhGo6yFKkyBu4AFjs-Wr5uyDDSC5sY3QUAf10JJXwBAZ-LWdGZRXqYxRSivegIDXcA4rFZ3Qgnb5j7-JXYmtAaAdULJzcNR6Ecd4RrNLO_LgifXTYK6PgxV0zb_?></g></svg>