<svg xmlns="http://www.w3.org/2000/svg" xmlns:xlink="http://www.w3.org/1999/xlink" contentStyleType="text/css" data-diagram-type="CLASS" height="314px" preserveAspectRatio="none" style="width:630px;height:314px;background:#FFFFFF;" version="1.1" viewBox="0 0 630 314" width="630px" zoomAndPan="magnify"><?plantuml 1.2026.6?><defs/><g><g class="title" data-source-line="1"><text fill="#000000" font-family="sans-serif" font-size="14" font-weight="700" lengthAdjust="spacing" textLength="275.9805" x="173.591" y="23.5352">Usuarios: herencia, no un enum suelto</text></g><!--class Usuario--><g class="entity" data-qualified-name="Usuario" data-source-line="7" id="ent0001"><rect fill="#F1F1F1" height="106.0859" rx="2.5" ry="2.5" style="stroke:#181818;stroke-width:0.5;" width="83.6318" x="369.48" y="44.4883"/><ellipse cx="384.48" cy="64.7988" fill="#A9DCDF" rx="11" ry="11" style="stroke:#181818;stroke-width:1;"/><path d="M384.3433,60.147 L383.1895,65.2188 L385.5054,65.2188 Z M382.8491,57.9058 L385.8457,57.9058 L389.1909,70.2988 L386.7422,70.2988 L385.9785,67.2358 L382.6997,67.2358 L381.9527,70.2988 L379.5039,70.2988 Z " fill="#000000"/><text fill="#000000" font-family="sans-serif" font-size="12" font-style="italic" lengthAdjust="spacing" textLength="55.541" x="396.5254" y="61.0898">&#171;@Entity&#187;</text><text fill="#000000" font-family="sans-serif" font-size="14" font-style="italic" lengthAdjust="spacing" textLength="51.6318" x="398.48" y="77.1563">Usuario</text><line style="stroke:#181818;stroke-width:0.5;" x1="370.48" x2="452.1118" y1="85.1094" y2="85.1094"/><text fill="#000000" font-family="sans-serif" font-size="14" lengthAdjust="spacing" textLength="52.6982" x="375.48" y="102.6445">nombre</text><text fill="#000000" font-family="sans-serif" font-size="14" lengthAdjust="spacing" textLength="36.6953" x="375.48" y="119.1328">email</text><text fill="#000000" font-family="sans-serif" font-size="14" lengthAdjust="spacing" textLength="53.1631" x="375.48" y="135.6211">rol : Rol</text><line style="stroke:#181818;stroke-width:0.5;" x1="370.48" x2="452.1118" y1="142.5742" y2="142.5742"/></g><!--class Cliente--><g class="entity" data-qualified-name="Cliente" data-source-line="13" id="ent0002"><rect fill="#F1F1F1" height="64.7324" rx="2.5" ry="2.5" style="stroke:#181818;stroke-width:0.5;" width="116.2334" x="353.18" y="217.9383"/><ellipse cx="384.7979" cy="233.9383" fill="#ADD1B2" rx="11" ry="11" style="stroke:#181818;stroke-width:1;"/><path d="M387.2711,240.0813 Q386.69,240.3802 386.0508,240.5296 Q385.4117,240.679 384.7061,240.679 Q382.1993,240.679 380.8795,239.0271 Q379.5596,237.3753 379.5596,234.2542 Q379.5596,231.1248 380.8795,229.4729 Q382.1993,227.8211 384.7061,227.8211 Q385.4117,227.8211 386.0592,227.9705 Q386.7066,228.1199 387.2711,228.4188 L387.2711,231.1414 Q386.6402,230.5604 386.0467,230.2906 Q385.4532,230.0208 384.8223,230.0208 Q383.4776,230.0208 382.7928,231.0875 Q382.108,232.1541 382.108,234.2542 Q382.108,236.346 382.7928,237.4126 Q383.4776,238.4793 384.8223,238.4793 Q385.4532,238.4793 386.0467,238.2095 Q386.6402,237.9397 387.2711,237.3587 Z " fill="#000000"/><text fill="#000000" font-family="sans-serif" font-size="14" lengthAdjust="spacing" textLength="47.3047" x="402.4908" y="239.2293">Cliente</text><line style="stroke:#181818;stroke-width:0.5;" x1="354.18" x2="468.4134" y1="249.9383" y2="249.9383"/><line style="stroke:#181818;stroke-width:1;" x1="354.18" x2="357.18" y1="266.1824" y2="266.1824"/><text fill="#000000" font-family="sans-serif" font-size="14" lengthAdjust="spacing" textLength="108.2334" x="357.18" y="270.9734">sin credenciales</text><line style="stroke:#181818;stroke-width:1;" x1="465.4134" x2="468.4134" y1="266.1824" y2="266.1824"/></g><!--class Empleado--><g class="entity" data-qualified-name="Empleado" data-source-line="17" id="ent0003"><rect fill="#F1F1F1" height="64.4883" rx="2.5" ry="2.5" style="stroke:#181818;stroke-width:0.5;" width="110.5879" x="7" y="218.0583"/><ellipse cx="27.458" cy="234.0583" fill="#ADD1B2" rx="11" ry="11" style="stroke:#181818;stroke-width:1;"/><path d="M29.9312,240.2013 Q29.3501,240.5002 28.7109,240.6496 Q28.0718,240.799 27.3662,240.799 Q24.8594,240.799 23.5396,239.1471 Q22.2197,237.4953 22.2197,234.3742 Q22.2197,231.2448 23.5396,229.5929 Q24.8594,227.9411 27.3662,227.9411 Q28.0718,227.9411 28.7192,228.0905 Q29.3667,228.2399 29.9312,228.5388 L29.9312,231.2614 Q29.3003,230.6804 28.7068,230.4106 Q28.1133,230.1408 27.4824,230.1408 Q26.1377,230.1408 25.4529,231.2075 Q24.7681,232.2741 24.7681,234.3742 Q24.7681,236.466 25.4529,237.5326 Q26.1377,238.5993 27.4824,238.5993 Q28.1133,238.5993 28.7068,238.3295 Q29.3003,238.0597 29.9312,237.4787 Z " fill="#000000"/><text fill="#000000" font-family="sans-serif" font-size="14" lengthAdjust="spacing" textLength="66.459" x="42.6709" y="239.3493">Empleado</text><line style="stroke:#181818;stroke-width:0.5;" x1="8" x2="116.5879" y1="250.0583" y2="250.0583"/><text fill="#000000" font-family="sans-serif" font-size="14" lengthAdjust="spacing" textLength="98.5879" x="13" y="267.5934">passwordHash</text><line style="stroke:#181818;stroke-width:0.5;" x1="8" x2="116.5879" y1="274.5466" y2="274.5466"/></g><!--class Rol--><g class="entity" data-qualified-name="Rol" data-source-line="21" id="ent0004"><rect fill="#F1F1F1" height="97.4648" rx="2.5" ry="2.5" style="stroke:#181818;stroke-width:0.5;" width="127.7324" x="487.43" y="201.5783"/><ellipse cx="536.2967" cy="217.5783" fill="#EB937F" rx="11" ry="11" style="stroke:#181818;stroke-width:1;"/><path d="M539.911,224.0783 L532.1912,224.0783 L532.1912,211.6852 L539.911,211.6852 L539.911,213.8434 L534.64,213.8434 L534.64,216.5163 L539.4129,216.5163 L539.4129,218.6745 L534.64,218.6745 L534.64,221.9201 L539.911,221.9201 Z " fill="#000000"/><text fill="#000000" font-family="sans-serif" font-size="14" lengthAdjust="spacing" textLength="21.499" x="556.7967" y="222.8693">Rol</text><line style="stroke:#181818;stroke-width:0.5;" x1="488.43" x2="614.1624" y1="233.5783" y2="233.5783"/><text fill="#000000" font-family="sans-serif" font-size="14" lengthAdjust="spacing" textLength="55.5557" x="493.43" y="251.1134">CLIENTE</text><text fill="#000000" font-family="sans-serif" font-size="14" lengthAdjust="spacing" textLength="115.7324" x="493.43" y="267.6017">ADMINISTRADOR</text><text fill="#000000" font-family="sans-serif" font-size="14" lengthAdjust="spacing" textLength="103.5166" x="493.43" y="284.09">ACOMODADOR</text><line style="stroke:#181818;stroke-width:0.5;" x1="488.43" x2="614.1624" y1="291.0431" y2="291.0431"/></g><g class="entity" data-qualified-name="GMN8" data-source-line="32" id="ent0009"><path d="M135.18,222.3383 L135.18,246.3083 L118.05,250.3083 L135.18,254.3083 L135.18,278.2699 A0,0 0 0 0 135.18,278.2699 L335.4124,278.2699 A0,0 0 0 0 335.4124,278.2699 L335.4124,232.3383 L325.4124,222.3383 L135.18,222.3383 A0,0 0 0 0 135.18,222.3383" fill="#FEFFDD" style="stroke:#181818;stroke-width:0.5;"/><path d="M325.4124,222.3383 L325.4124,232.3383 L335.4124,232.3383 L325.4124,222.3383" fill="#FEFFDD" style="stroke:#181818;stroke-width:0.5;"/><text fill="#000000" font-family="sans-serif" font-size="13" lengthAdjust="spacing" textLength="179.2324" x="141.18" y="239.9066">El corte es tener contrasena,</text><text fill="#000000" font-family="sans-serif" font-size="13" lengthAdjust="spacing" textLength="161.5034" x="141.18" y="255.2172">no el cargo. Rol distingue</text><text fill="#000000" font-family="sans-serif" font-size="13" lengthAdjust="spacing" textLength="138.3154" x="141.18" y="270.5277">adentro de Empleado.</text></g><!--reverse link Usuario to Cliente--><g class="link" data-entity-1="ent0001" data-entity-2="ent0002" data-link-type="extension" data-source-line="27" id="lnk5"><path codeLine="27" d="M411.29,168.8383 C411.29,191.1283 411.29,198.3883 411.29,217.7383" fill="none" id="Usuario-backto-Cliente" style="stroke:#181818;stroke-width:1;"/><polygon fill="none" points="411.29,150.8383,405.29,168.8383,417.29,168.8383,411.29,150.8383" style="stroke:#181818;stroke-width:1;stroke-linejoin:miter;stroke-miterlimit:10;"/></g><!--reverse link Usuario to Empleado--><g class="link" data-entity-1="ent0001" data-entity-2="ent0003" data-link-type="extension" data-source-line="28" id="lnk6"><path codeLine="28" d="M351.7369,114.3868 C294.6169,130.2568 207.83,157.6783 126.29,201.5783 C117.75,206.1683 109.09,211.8283 101.03,217.6083" fill="none" id="Usuario-backto-Empleado" style="stroke:#181818;stroke-width:1;"/><polygon fill="none" points="369.08,109.5683,350.1308,108.6058,353.3431,120.1678,369.08,109.5683" style="stroke:#181818;stroke-width:1;stroke-linejoin:miter;stroke-miterlimit:10;"/></g><!--link Usuario to Rol--><g class="link" data-entity-1="ent0001" data-entity-2="ent0004" data-link-type="dependency" data-source-line="29" id="lnk7"><path codeLine="29" d="M453.3,143.7683 C470.13,161.8983 486.1483,179.1438 503.2383,197.5538" fill="none" id="Usuario-to-Rol" style="stroke:#181818;stroke-width:1;"/><polygon fill="#181818" points="506.64,201.2183,503.4485,191.9009,503.2383,197.5538,497.5853,197.3436,506.64,201.2183" style="stroke:#181818;stroke-width:1;stroke-linejoin:miter;stroke-miterlimit:10;"/><text fill="#000000" font-family="sans-serif" font-size="13" lengthAdjust="spacing" textLength="86.9312" x="490.68" y="181.1466">discriminador</text></g><?plantuml-src LL1RRW8n3FpFANm05hLgFog4K16ir9KAI40F43OkM6ITbPDLrTVTwmq5sg_4u_6CnucIHtY9dHKASGG75EIQx00uGCU0t3KGE_Gf61EFnAqLsq3jROpJb8HsNSAg3hoX3uIRFnGE3YEsSFlm1nJBnnwykpV6xc8IMwUJs7a768yVIqwKtYSJ-3IWEirEK3_OMFBwIl0mWdNmvjkOq-pC4tB2p2yAYCHG2xgSn6DKxCejczQZTI6JMqNUWhWd6myz9STLwToSFLVbSblgRpfVLCjgirrFvwjrNyzMYzKy5pfqsVnBlNzN-G-UFIzeKKoopGWSnLge8TQs6CD1OmZj3md2wtKEeFHG1z6cnad8A5gotYyYsq4-4w1IhEp3C4khS2BUT_tfh9uYIG275ycXPdNGsvaV?></g></svg>